<?xml version="1.0" encoding="UTF-8"?><svg id="Layer_1" xmlns="http://www.w3.org/2000/svg" viewBox="0 0 1080 1080"><path d="m723.9,718.65c4.99-9.68,2.66-17.91-8.25-28.81,10.61.79,19.1-2.79,23.94-12.38,5.31-10.52,2.62-19.98-5.48-28.25,22.62-2.9,30.21-26.21,15.6-41.99,10.5-1.56,17.98-6.87,21-17.12,3-10.21-.67-18.65-8.56-25.93,10.94-.86,18.39-5.7,21.67-15.59,2.84-8.56,1.03-16.59-5.56-22.76-9.72-9.11-20.34-8.13-30.28-1.48-2.35-5.3-4.58-10.31-6.49-14.61,4.95-3.57,10.05-7.24,14.94-10.76.88,11.85,7.1,19.47,17.59,21.18,9.01,1.46,18.3-3.68,21.96-12.17,3.76-8.71,1.1-18.93-6.51-24.59-4.71-3.51-10.19-5.45-15.8-3.63-5.08,1.64-9.7,4.71-14.2,6.99q-1.1-10.98-10.18-21.69c12.62-2.48,18.86-7.53,21.03-17.02,1.87-8.17-1.33-17.16-8.41-21.78-10.94-7.13-20.85-4.55-29.98,4.77.12-10.11-3.74-17.46-11.69-22.82,14-2.33,20.88-8.05,22.1-18.12,1.12-9.24-3.85-17.89-12.31-21.4-8.32-3.45-17.99-1.03-23.56,6.02-3.65,4.61-5.78,10.06-4.05,15.69,1.6,5.18,4.76,9.87,6.68,13.7-5.02,1.51-11.08,3.34-16.93,5.1-2.39-4.3-5.18-9.33-7.98-14.37,10.22-2.63,17-8.99,18.07-20,.87-8.98-2.84-16.35-10.74-20.78-11.1-6.23-20.9-3.23-29.45,5.9-.62-21.92-24.51-33.41-41.77-16.84-3-22.4-27.23-29.5-42.38-13.84-1.39-11.33-6.97-19.28-18.29-21.75-8.92-1.95-16.84.79-22.41,8.18-7.1,9.41-6.2,19.15.08,28.41-4.96,2.15-9.71,4.21-14.47,6.28-1.23-2.36-2.29-4.98-3.86-7.23-1.65-2.38-3.8-4.41-5.73-6.59,14.59-4.31,20.37-10.15,20.67-20.88.25-9.23-5.41-17.34-14.17-20.28-8.53-2.87-17.95.03-23.32,7.18-6.48,8.62-5.53,17.19,3.11,29.06-3.6.94-7.48,1.43-10.88,2.97-3.46,1.56-6.47,4.15-9.71,6.32-2.22-11.25-7.97-17.71-17.62-19.89-8.46-1.91-17.65,1.48-22.5,8.82-6.79,10.28-5.02,20.05,3.06,29.48-8.09.59-14.42,3.79-19.69,10.09-1.98-11.65-7.73-18.84-18.78-20.58-8.96-1.41-17.57,2.83-21.62,10.61-5.72,10.97-2.74,20.4,6.36,28.54-22.74.45-33.1,23.96-18.69,41.07-7.86,1.07-14.02,4.89-18.79,11.63-2.02-13.37-7.93-20.06-18.35-21.46-8.83-1.19-17.47,3.8-21.04,12.14-3.54,8.27-1.18,17.91,5.8,23.61,4.46,3.65,9.77,5.65,15.24,4.22,5.16-1.36,9.92-4.27,13.82-6.03,1.89,5.35,4.13,11.7,6.07,17.18-5.28,3.47-10.88,7.16-16.25,10.69-2.26-12.21-8.22-18.96-18.07-19.92-9.62-.94-18.08,4.18-21.39,12.96-3.23,8.57-.28,18.25,7.19,23.62,8.67,6.22,17.1,5,28.93-4.43-.26,7.66,1.91,14.29,7.47,20.19-8.81,1.66-14.98,6.12-19.25,13.31.16-12.28-5.35-20.5-15.32-22.84-9.09-2.14-18.55,2.5-22.39,10.96-3.97,8.76-1.21,18.85,6.66,24.35,4.9,3.42,10.59,4.87,15.96,2.74,5.02-1.99,9.34-5.77,13.3-8.33-1.62,8.15,1.54,16.03,8.39,22.72-17.1,4.48-24.99,16.61-20,30.38,2.22,6.14,6.45,10.56,12.49,13.01,8.7,3.53,16.66,1.52,23.29-3.63,2.6,5.63,5.09,11,7.56,16.35-15.57,6.79-21.86,18.87-16.3,31.96,2.47,5.83,6.62,10.03,12.52,12.43,8.8,3.58,16.86,1.66,23.73-3.26,2.91,5.58,5.65,10.85,8.39,16.12-9.89,2.58-16.65,8.77-17.92,19.53-1.12,9.53,2.7,17.22,11.1,21.9,10.39,5.79,19.86,3.21,28.27-4.71,2.92,12.39,3.44,13.27,12.41,21.11-13.08,1.32-20.43,7.04-21.9,17.03-1.41,9.53,3.49,18.3,12.16,21.79,8.67,3.48,18.62.52,23.94-7.13,6.14-8.83,4.54-17.51-5.74-29.18,8.01,1.1,14.58-1.32,19.62-5.45,3.65,5.84,7.2,11.53,10.61,16.99-11.3,1.86-18.13,8.12-19.49,18.34-1.14,8.54,3.73,17.27,11.71,20.96,8.35,3.87,18.2,1.86,24.21-5.04,3.87-4.44,6.16-9.83,4.86-15.5-1.19-5.19-4.04-10-5.81-14.17,5.11-1.79,11.07-3.88,16.45-5.76,3.14,4.89,6.63,10.31,9.98,15.53-12.56,2.96-18.7,8.85-19.48,19.18-.68,8.97,4.19,17.03,12.39,20.53,8.31,3.54,17.87,1.3,23.7-5.59,3.71-4.38,5.88-9.62,4.61-15.14-1.19-5.18-3.92-10-5.88-14.74,2.35-.51,5.78-.86,8.9-2.04,3.09-1.17,5.86-3.17,8.17-4.46,2.72,4.31,5.08,8.84,8.22,12.75,1.94,2.42,5.07,3.89,7.66,5.79-1.6-.2-3.2-.54-4.81-.59-9.98-.3-18.51,6.65-20.07,16.3-1.59,9.8,4.12,19.07,13.57,22.05,9.37,2.95,19.53-1.52,23.68-10.44,4.16-8.94,1.12-19.41-7.19-24.89-1.18-.78-2.2-1.81-3.3-2.73,10.81,3.53,19.27-.75,26.78-8.81.83,11.05,5.8,18.28,15.78,21.5,8.36,2.7,17.75-.19,23.03-7.21,7.53-10.02,6.08-19.94-.82-28.67,6.11-2.9,12.11-5.74,18.03-8.55,5.71,15.63,17.62,22.33,30.93,16.71,5.88-2.48,10.07-6.72,12.21-12.7,3.26-9.09.92-17.2-5.16-24.07,3.83-1.34,7.48-2.16,10.67-3.86,3.1-1.65,5.72-4.2,8.62-6.41,1.88,11.48,8.43,18.55,18.37,20.04,8.76,1.3,17.64-3.29,21.74-11.24Zm-307.08-333.09c1.19,3.78,2.71,8.58,4.24,13.44-3.61,1.86-7.63,3.93-11.41,5.89-3.13-4.28-6.4-8.76-9.12-12.5,5.13-2.15,10.78-4.52,16.29-6.83Zm-65.65,189.49c-2.35-4.28-4.71-8.6-7.06-12.88,3.88-1.27,8.22-2.69,12.7-4.16,1.48,3.28,3.07,6.83,4.67,10.38-3.45,2.23-6.97,4.51-10.31,6.67Zm15.11-45.07c-1.91-3.15-3.77-6.24-5.7-9.41,3.21-1.17,6.48-2.36,9.98-3.63,1.11,2.65,2.23,5.32,3.47,8.3-2.71,1.66-5.19,3.18-7.76,4.75Zm12.94,100.9c-1.81-3.67-3.62-7.32-5.43-11,3.2-1.08,6.49-2.18,9.9-3.33,1.41,2.87,2.83,5.75,4.26,8.67-2.97,1.93-5.91,3.83-8.73,5.66Zm1.74-143.73c-1.77-2.88-3.5-5.68-5.33-8.65,3.35-1.24,6.35-2.35,9.65-3.58,1.01,2.43,2.05,4.92,3.2,7.68-2.46,1.48-4.9,2.96-7.52,4.54Zm14,96.99c-.92-1.71-1.73-3.21-2.66-4.94,1.4-.59,2.56-1.07,4.13-1.73.79,1.63,1.34,2.79,2.01,4.16-1.11.8-2.13,1.53-3.47,2.51Zm.63-138.75c-2.07-3.18-4.12-6.32-6.29-9.65,3.59-1.45,7.29-2.94,11-4.43,1.13,3,2.26,6.01,3.54,9.44-2.78,1.56-5.43,3.05-8.25,4.64Zm10.76,244.93c-1.87-4.53-3.84-9.29-5.76-13.95,3.47-1.18,7.33-2.5,11.53-3.94,1.78,3.33,3.63,6.8,5.46,10.22-3.75,2.56-7.64,5.22-11.22,7.66Zm16.51-48.57c-.96-2-1.63-3.41-2.34-4.9,3.13-2.86,4.43-.98,5.51,2.28-.82.68-1.75,1.45-3.16,2.62Zm26.51,60.49c-1.37-3.37-2.62-6.45-4-9.86,2.62-1,5.36-2.06,8.27-3.17,1.44,2.55,2.78,4.94,4.23,7.52-2.81,1.82-5.55,3.6-8.49,5.52Zm3.61-287.91c-1.24-1.92-2.33-3.61-3.61-5.59,2.37-1.17,4.55-2.24,7.04-3.46.74,2.01,1.43,3.9,2.23,6.08-1.93,1.02-3.7,1.94-5.66,2.98Zm13.58-38.08c-2.54-3.75-5.13-7.57-7.36-10.86,4.66-2.33,9.53-4.77,14.27-7.14,1.22,3.92,2.63,8.42,3.97,12.74-3.62,1.75-7.28,3.52-10.88,5.26Zm25.46,339.79c-1.03-2.75-2.03-5.42-3.15-8.4,2.36-1,4.69-2,7.26-3.09,1.43,2.42,2.61,4.42,3.9,6.59-2.63,1.61-5.19,3.18-8,4.91Zm18.01-329.27c-1.27-1.89-2.54-3.79-3.93-5.85,2.56-1.37,4.98-2.67,7.77-4.16.87,2.32,1.71,4.56,2.6,6.94-2.2,1.05-4.16,1.99-6.44,3.07Zm24.07,344.72c-1.18-3.28-2.34-6.52-3.59-10.03,2.8-1.23,5.33-2.34,8.13-3.57,1.63,2.58,3.31,5.25,5.11,8.11-3.22,1.83-6.42,3.65-9.64,5.49Zm32.32-368.67c-2.16-3.44-4.39-6.97-6.51-10.35,4.26-2.55,8.65-5.19,12.76-7.66,1.45,4.27,2.99,8.8,4.57,13.46-3.28,1.38-7,2.94-10.83,4.54Zm8.49,386.49c-1.23-4.17-2.69-9.1-4.17-14.11,3.56-1.58,7.3-3.23,11.21-4.96,2.48,3.65,5.14,7.56,7.48,11.01-4.79,2.66-9.79,5.43-14.52,8.06Zm17.37-48.64c-.64-1.73-1.2-3.27-1.87-5.11,1.82-.89,3.45-1.69,5.26-2.57.96,1.47,1.81,2.76,2.87,4.39-2.06,1.08-3.93,2.07-6.26,3.29Zm16.7-323.97c-1.92-3.15-3.96-6.47-5.91-9.65,3.89-2.52,7.85-5.09,11.53-7.48,1.42,4.12,2.94,8.5,4.56,13.18-3.28,1.28-6.66,2.58-10.18,3.95Zm23.8,342.88c-1.19-3.63-2.49-7.62-3.81-11.65,3.3-1.66,6.65-3.35,10.04-5.05,2.44,3.57,4.93,7.22,7.19,10.53-4.35,2-8.79,4.04-13.42,6.17Zm16.59-46.17c-.72-1.88-1.43-3.71-2.29-5.95,1.9-1.02,3.77-2.02,5.98-3.21,1.35,2.16,2.41,3.85,3.61,5.76-2.43,1.13-4.64,2.16-7.3,3.4Zm1.64-280.86c-1.98-3.56-4.08-7.34-6.05-10.89,4.26-2.97,8.68-6.05,12.49-8.71,1.81,4.89,3.79,10.23,5.7,15.38-3.64,1.26-7.88,2.74-12.14,4.22Zm68.64,212.99c-1.23-3.02-2.6-6.37-4.08-9.99,3.33-1.98,6.47-3.84,9.33-5.53,2.29,3.74,4.57,7.46,6.83,11.14-3.84,1.39-7.89,2.86-12.08,4.38Zm28.22-46.11c-4.34,1.37-9.14,2.89-14,4.43-1.5-3.57-3.08-7.33-4.63-11.03,3.61-2.27,7.3-4.58,10.61-6.67,2.7,4.47,5.51,9.1,8.03,13.26Zm-19.54-116.09c.37,6.6,2.91,12.62,8.44,16.91-5.38,1.55-10.59,3.05-15.94,4.58-1.8-3.69-3.89-7.96-5.83-11.93,4.4-3.15,8.75-6.28,13.33-9.57Zm-16.73,48.58c1.59,3.03,3.06,5.85,4.66,8.9-2.88,1-5.36,1.86-8.12,2.82-1.12-2.28-2.26-4.6-3.53-7.18,2.34-1.52,4.61-2.99,7-4.55Zm-1.04,140.28c2.49,3.74,5.04,7.57,7.52,11.28-4.29,1.55-8.78,3.18-13.3,4.81-1.2-3.23-2.51-6.76-3.87-10.43,3.16-1.86,6.41-3.76,9.66-5.66Zm-15.93-94.36c.53.01,1.06.02,1.58.04.81,1.32,1.62,2.64,2.6,4.23-1.37.61-2.5,1.11-3.63,1.62-.51-.23-1.02-.45-1.53-.68.33-1.74.65-3.47.98-5.21Zm-14.33-91.62c-1.22-2.3-2.42-4.57-3.77-7.13,2.56-1.71,4.74-3.17,7.24-4.84,1.39,3,2.74,5.95,4.22,9.15-2.49.91-4.92,1.81-7.68,2.82Zm8.9,248.66c-1.74-5.34-3.43-10.5-5.05-15.47,3.9-2.07,8.12-4.31,11.75-6.23,3.77,4.94,7.42,9.74,11,14.45-6.33-.25-12.77,1.83-17.7,7.25Z"/><path d="m314.07,601.03c-10.99-.07-20.02,8.83-20.12,19.85-.1,10.99,8.84,20,19.88,20.04,11.16.04,19.98-8.67,20.06-19.8.08-11.04-8.77-20.02-19.82-20.1Z"/><path d="m341.53,697.33c11.02-.07,19.9-9.1,19.78-20.13-.11-11.13-8.98-19.85-20.09-19.76-11.08.09-19.91,9.02-19.83,20.06.08,10.98,9.14,19.89,20.14,19.83Z"/><path d="m324.92,397.59c.12,10.67,8.95,19.32,19.61,19.21,10.7-.11,19.26-8.86,19.16-19.59-.1-10.72-8.8-19.28-19.54-19.21-10.63.08-19.36,8.96-19.24,19.58Z"/><path d="m709.71,750.6c-.1-10.61-8.59-18.89-19.27-18.81-10.6.08-18.93,8.59-18.84,19.23.1,10.56,8.7,18.99,19.26,18.88,10.56-.11,18.95-8.7,18.84-19.3Z"/><path d="m775.83,620.5c-10.58-.1-19.16,8.31-19.26,18.87-.1,10.65,8.21,19.13,18.84,19.23,10.66.1,19.18-8.22,19.27-18.81.09-10.6-8.31-19.19-18.85-19.29Z"/><path d="m615.2,778.28c0,10.46,8.66,19.07,19.15,19.06,10.55-.01,18.98-8.49,19.01-19.12.03-10.58-8.4-18.97-19.07-18.99-10.55-.02-19.1,8.51-19.09,19.05Z"/><path d="m809.11,597.79c.03-10.64-8.32-19.06-18.95-19.11-10.57-.05-19.17,8.43-19.21,18.93-.03,10.48,8.53,19.11,19.03,19.17,10.56.06,19.1-8.42,19.12-19Z"/><path d="m611.17,320.95c10.36-.14,18.81-8.73,18.68-18.99-.12-10.35-8.63-18.71-18.99-18.65-10.3.06-18.78,8.66-18.68,18.96.1,10.29,8.77,18.82,18.99,18.68Z"/><path d="m652.78,335.37c10.42.08,18.9-8.35,18.88-18.77-.02-10.46-8.43-18.88-18.84-18.87-10.32,0-18.75,8.62-18.65,19.05.1,10.28,8.34,18.52,18.61,18.6Z"/><path d="m396.1,328.57c.08,10.3,8.29,18.47,18.62,18.51,10.54.05,18.86-8.2,18.88-18.7.01-10.49-8.31-18.77-18.84-18.74-10.51.03-18.74,8.38-18.65,18.92Z"/><path d="m779.63,681.57c.03-10.32-8.21-18.6-18.49-18.58-10.23.02-18.59,8.43-18.52,18.64.07,10.01,8.3,18.25,18.35,18.37,10.24.12,18.63-8.17,18.66-18.43Z"/><path d="m387.36,733.96c.17-10.17-8.16-18.68-18.38-18.77-10.24-.09-18.6,8.2-18.62,18.46-.02,10.29,8.26,18.58,18.53,18.55,10.04-.03,18.3-8.2,18.47-18.24Z"/><path d="m489.65,301.14c.13-10.08-7.88-18.44-17.92-18.7-10.3-.26-18.76,7.8-18.96,18.07-.21,10.32,7.89,18.78,18.12,18.93,10.27.16,18.63-8.01,18.77-18.31Z"/><path d="m568.62,305.9c9.88.37,18.52-7.86,18.74-17.85.22-9.99-7.92-18.45-17.95-18.64-9.84-.19-18.1,7.72-18.42,17.63-.32,10.13,7.48,18.47,17.63,18.86Z"/><path d="m286.75,546.82c-10.15-.1-18.35,7.89-18.47,18.02-.12,9.96,8.21,18.33,18.22,18.32,9.96-.01,17.97-7.88,18.17-17.86.21-10.16-7.77-18.39-17.92-18.48Z"/><path d="m822.77,556.38c.19-10.02-7.97-18.33-18.08-18.4-10.21-.07-18.32,7.94-18.31,18.09.01,10.16,8.12,18.28,18.23,18.25,9.87-.03,17.98-8.04,18.17-17.94Z"/><path d="m791.64,439.96c-9.9-.04-18.09,8.11-18.05,17.93.04,9.83,8.32,18.05,18.1,17.95,9.69-.09,17.67-8.05,17.82-17.77.15-9.82-7.99-18.08-17.86-18.11Z"/><path d="m746.18,401.48c-.03,9.88,8.11,18.01,17.99,17.97,9.9-.04,17.98-8.21,17.89-18.08-.09-9.68-8.09-17.68-17.78-17.76-9.87-.09-18.07,8.01-18.11,17.88Z"/><path d="m577.84,787.76c-9.9.04-17.82,8.14-17.73,18.15.08,9.71,8.05,17.65,17.77,17.73,9.88.07,17.96-8.03,17.93-17.98-.03-10.03-7.96-17.94-17.96-17.9Z"/><path d="m694.76,348.85c10.06,0,17.95-7.9,17.88-17.91-.07-10.05-7.98-17.83-18.05-17.75-9.82.08-17.6,7.87-17.67,17.7-.07,10.02,7.81,17.96,17.84,17.96Z"/><path d="m341.25,355.58c-.09,9.85,7.66,17.78,17.43,17.84,9.77.06,17.66-7.8,17.68-17.61.01-9.62-7.63-17.43-17.23-17.61-9.78-.18-17.8,7.61-17.88,17.38Z"/><path d="m763.97,723.55c.09-9.76-7.55-17.46-17.31-17.43-9.52.02-17.19,7.6-17.31,17.08-.11,9.57,7.77,17.5,17.4,17.49,9.48,0,17.13-7.62,17.22-17.14Z"/><path d="m316.77,663.4c.24-9.61-7.13-17.31-16.69-17.45-9.62-.14-17.2,7.29-17.24,16.89-.03,9.42,7.29,16.91,16.67,17.03,9.41.12,17.03-7.14,17.26-16.46Z"/><path d="m527.46,290.45c9.43.04,16.88-7.25,17.04-16.66.16-9.58-7.33-17.22-16.91-17.24-9.4-.02-16.92,7.33-17.05,16.67-.14,9.57,7.35,17.19,16.93,17.23Z"/><path d="m736.87,329.13c-9.3-.07-16.59,7.12-16.58,16.39,0,9.01,7.22,16.31,16.2,16.39,9.03.08,16.42-7.05,16.59-16,.17-9.3-6.98-16.7-16.2-16.77Z"/><path d="m835.38,514.17c-.02-8.99-7.27-16.33-16.22-16.42-9.14-.1-16.59,7.32-16.57,16.51.02,9.17,7.51,16.56,16.66,16.41,8.96-.14,16.15-7.5,16.13-16.5Z"/><path d="m326.9,735.6c9.3.15,16.67-7.02,16.72-16.26.05-9.03-7.09-16.38-16.06-16.54-9.14-.16-16.72,7.22-16.78,16.33-.06,8.98,7.14,16.33,16.13,16.47Z"/><path d="m496.21,818.82c.11-8.97-7.18-16.26-16.23-16.24-8.87.03-16.01,7.07-16.12,15.9-.11,8.96,7.18,16.25,16.22,16.24,8.86-.01,16.01-7.07,16.13-15.91Z"/><path d="m272.17,622.74c8.98.09,16.31-7.2,16.29-16.21-.01-8.85-7.09-16.03-15.9-16.11-9.04-.09-16.27,7.09-16.28,16.16,0,8.82,7.12,16.08,15.89,16.16Z"/><path d="m676.29,776.52c-8.8-.03-16.02,7.06-16.17,15.87-.16,9.03,7,16.39,16,16.44,8.86.05,16.02-6.96,16.16-15.83.14-9.07-7.02-16.46-15.99-16.49Z"/><path d="m438.22,788.03c-8.97-.02-16.22,7.29-16.17,16.31.05,9,7.43,16.17,16.46,15.98,8.83-.18,15.82-7.41,15.73-16.26-.09-8.88-7.21-16.01-16.01-16.03Z"/><path d="m429.14,302.37c8.57.12,15.78-6.89,15.95-15.51.18-8.93-6.74-16.07-15.66-16.16-8.88-.09-16.05,7-16.02,15.85.02,8.56,7.12,15.7,15.72,15.82Z"/><path d="m257.66,466.82c.06,8.66,7.05,15.63,15.76,15.69,8.95.06,15.97-6.93,15.93-15.88-.04-8.65-7.03-15.7-15.68-15.8-8.69-.1-16.07,7.27-16.01,15.99Z"/><path d="m272.2,424.95c.04,8.73,7.08,15.75,15.78,15.75,8.73,0,15.71-6.97,15.77-15.74.06-8.95-7.06-16.06-15.99-15.97-8.69.09-15.61,7.19-15.57,15.96Z"/><path d="m635.38,820.18c.02-8.57-6.8-15.51-15.34-15.6-8.74-.09-15.75,6.94-15.68,15.71.08,8.61,6.91,15.35,15.55,15.32,8.63-.03,15.44-6.83,15.46-15.43Z"/><path d="m243.51,508.48c-.08,8.7,6.98,15.68,15.77,15.6,8.6-.08,15.39-6.98,15.31-15.57-.08-8.6-6.93-15.42-15.5-15.44-8.49-.02-15.51,6.92-15.59,15.41Z"/><path d="m396.1,805.3c8.55.08,15.54-6.74,15.67-15.28.13-8.64-6.53-15.57-15.14-15.74-8.78-.18-15.92,6.72-15.95,15.44-.04,8.46,6.94,15.51,15.42,15.59Z"/><path d="m373.01,329.18c8.37-.07,15.21-6.9,15.22-15.21.02-8.5-7.13-15.54-15.56-15.34-8.34.2-15.11,7.18-15,15.47.11,8.35,7.04,15.16,15.34,15.09Z"/><path d="m732.67,780.52c8.37-.06,15.11-6.87,15.1-15.26,0-8.41-6.74-15.23-15.1-15.3-8.54-.07-15.41,6.9-15.3,15.52.11,8.43,6.89,15.09,15.3,15.04Z"/><path d="m537.14,833.15c.02-8.42-6.68-15.21-15.06-15.3-8.41-.08-15.23,6.58-15.35,14.99-.13,8.58,6.8,15.64,15.26,15.56,8.4-.08,15.14-6.87,15.15-15.25Z"/><path d="m470.72,259.11c.01,8.2,6.7,14.91,14.88,14.92,8.16.02,14.94-6.67,15.03-14.83.09-8.36-6.74-15.15-15.16-15.06-8.31.09-14.76,6.64-14.75,14.96Z"/><path d="m287.53,383c.01,8.21,6.65,14.88,14.86,14.95,8.26.06,15.24-7.02,15.06-15.26-.18-8.21-6.92-14.71-15.16-14.63-8.29.08-14.77,6.65-14.76,14.95Z"/><path d="m806.06,401.04c-8.41-.18-15.25,6.52-15.25,14.94,0,8.26,6.57,14.91,14.78,14.97,8.25.06,14.91-6.47,15.01-14.73.11-8.3-6.31-15-14.55-15.18Z"/><path d="m832.12,654.05c-.02-8.07-6.5-14.63-14.51-14.7-8.12-.07-14.93,6.81-14.79,14.93.14,7.99,6.81,14.51,14.8,14.48,8.01-.04,14.52-6.64,14.5-14.7Z"/><path d="m610.78,260.49c.16,7.98,6.87,14.53,14.83,14.45,8.02-.08,14.5-6.69,14.46-14.75-.04-8.09-6.5-14.6-14.55-14.66-8.11-.06-14.9,6.83-14.74,14.97Z"/><path d="m846.65,612.12c-.03-8-6.61-14.59-14.61-14.62-8.25-.03-14.8,6.64-14.68,14.93.12,8.13,6.58,14.4,14.76,14.33,8.08-.06,14.55-6.58,14.52-14.64Z"/><path d="m817.46,695.93c.02-7.98-6.73-14.56-14.73-14.36-7.87.2-14.23,6.79-14.07,14.59.16,7.87,6.7,14.25,14.52,14.17,7.86-.08,14.27-6.54,14.28-14.4Z"/><path d="m818.75,472.08c-.15,7.82,6.2,14.43,14.04,14.61,8.04.18,14.74-6.33,14.76-14.34.02-7.81-6.43-14.34-14.26-14.45-7.77-.1-14.39,6.35-14.54,14.17Z"/><path d="m653.04,274.65c0,7.96,6.4,14.43,14.29,14.43,7.94,0,14.31-6.38,14.33-14.37.03-7.98-6.34-14.4-14.27-14.39-7.97,0-14.34,6.37-14.35,14.33Z"/><path d="m778.39,345.52c-7.92-.12-14.64,6.66-14.51,14.63.13,7.86,6.65,14.22,14.5,14.15,7.87-.07,14.3-6.53,14.3-14.35,0-7.8-6.45-14.31-14.29-14.43Z"/><path d="m354.76,789.57c8.03-.05,14.28-6.36,14.23-14.38-.05-7.99-6.41-14.27-14.41-14.21-8.04.06-14.25,6.35-14.22,14.4.03,8.03,6.34,14.24,14.4,14.19Z"/><path d="m244.97,536.41c-7.78-.02-14.04,6.24-14.06,14.05-.02,7.82,6.2,14.1,13.98,14.11,7.74.01,14.12-6.33,14.14-14.03.02-7.72-6.35-14.11-14.06-14.13Z"/><path d="m569.57,245.87c-.11,7.82,6.01,14.14,13.81,14.26,7.79.12,14.1-6.04,14.19-13.87.09-7.86-6.03-14.19-13.8-14.27-7.82-.08-14.1,6.05-14.21,13.87Z"/><path d="m577.64,847.39c-.09-7.52-6.44-13.69-13.99-13.61-7.6.08-13.66,6.31-13.56,13.95.1,7.72,6.15,13.62,13.9,13.54,7.6-.07,13.75-6.32,13.65-13.88Z"/><path d="m860.15,570.28c-.02-7.7-6.05-13.72-13.73-13.71-7.7,0-13.74,6.03-13.75,13.71,0,7.6,6.16,13.79,13.75,13.79,7.57,0,13.75-6.2,13.74-13.79Z"/><path d="m695.52,289.16c0,7.66,6.08,13.7,13.76,13.67,7.72-.03,13.71-6.03,13.7-13.74,0-7.61-6.15-13.75-13.76-13.74-7.61.01-13.7,6.15-13.7,13.8Z"/><path d="m285.51,718.57c7.62-.11,13.65-6.31,13.57-13.95-.09-7.67-6.2-13.6-13.92-13.53-7.68.07-13.63,6.17-13.55,13.89.08,7.61,6.31,13.7,13.9,13.6Z"/><path d="m271.65,648.43c-.01-7.65-6.11-13.76-13.74-13.77-7.61-.01-13.73,6.13-13.74,13.77,0,7.67,6.05,13.7,13.75,13.7,7.68,0,13.75-6.06,13.73-13.71Z"/><path d="m317.14,327.84c-7.41-.13-13.56,5.83-13.68,13.26-.12,7.47,5.77,13.6,13.18,13.72,7.5.12,13.52-5.72,13.66-13.23.14-7.48-5.75-13.63-13.17-13.76Z"/><path d="m788.51,751.03c7.26.04,13.19-5.84,13.23-13.12.05-7.35-5.72-13.18-13.06-13.21-7.34-.03-13.26,5.77-13.3,13.04-.04,7.22,5.92,13.25,13.13,13.29Z"/><path d="m661.97,821.4c-7.08-.13-12.99,5.56-13.14,12.65-.15,7.09,5.53,12.94,12.68,13.05,7.25.11,12.96-5.39,13.06-12.59.1-7.19-5.47-12.98-12.61-13.11Z"/><path d="m718.03,793.96c-6.99.04-12.66,5.63-12.78,12.62-.13,7.27,5.44,13.01,12.69,13.09,7.27.07,12.98-5.53,13.01-12.77.02-7.18-5.76-12.97-12.91-12.93Z"/><path d="m541.46,244.42c7.23.11,13.06-5.51,13.16-12.69.1-7.06-5.78-12.98-12.91-13.01-6.98-.02-12.68,5.53-12.85,12.54-.18,7.28,5.35,13.05,12.6,13.16Z"/><path d="m873.22,528.77c.07-6.91-5.7-12.71-12.65-12.71-6.78,0-12.41,5.48-12.62,12.28-.21,6.89,5.46,12.81,12.41,12.95,6.9.14,12.78-5.58,12.85-12.52Z"/><path d="m374.89,272.33c.15,6.85,5.69,12.33,12.49,12.34,6.96.02,12.61-5.7,12.58-12.72-.03-7.02-5.75-12.64-12.73-12.52-7.03.11-12.49,5.82-12.34,12.9Z"/><path d="m325.4,761.44c.21-6.93-5.43-12.76-12.43-12.84-7.06-.09-12.8,5.47-12.83,12.43-.03,6.99,5.62,12.63,12.64,12.63,6.86,0,12.41-5.38,12.61-12.22Z"/><path d="m738.89,303.71c.06,6.89,5.61,12.31,12.48,12.19,6.62-.12,12.04-5.58,12.1-12.2.07-6.77-5.55-12.43-12.33-12.41-6.87.02-12.31,5.54-12.25,12.42Z"/><path d="m242.73,592.4c.01-6.81-5.6-12.43-12.34-12.37-6.82.07-12.25,5.67-12.15,12.55.1,6.9,5.62,12.2,12.56,12.04,6.74-.16,11.93-5.47,11.94-12.22Z"/><path d="m443.81,256.82c6.91-.01,12.3-5.49,12.2-12.39-.1-6.85-5.77-12.37-12.52-12.18-6.85.19-12.15,5.82-11.96,12.71.19,6.75,5.49,11.88,12.27,11.87Z"/><path d="m605.46,849.72c-6.5-.04-11.8,5.11-11.98,11.63-.19,6.8,4.93,12.19,11.68,12.31,6.73.12,12.2-5.12,12.29-11.78.09-6.58-5.37-12.12-11.98-12.16Z"/><path d="m465.48,848.84c-6.52.07-11.67,5.36-11.57,11.91.09,6.3,5.25,11.45,11.54,11.54,6.46.09,11.77-5.21,11.76-11.73,0-6.55-5.25-11.78-11.74-11.72Z"/><path d="m331.25,311.2c6.42.06,11.86-5.33,11.85-11.74,0-6.28-5.13-11.52-11.41-11.69-6.45-.17-11.95,5.06-12.06,11.48-.11,6.43,5.2,11.89,11.63,11.95Z"/><path d="m859.27,430.35c-.05-6.51-5.37-11.72-11.85-11.62-6.52.1-11.59,5.43-11.44,12.01.15,6.36,5.28,11.41,11.61,11.43,6.45.02,11.74-5.33,11.69-11.82Z"/><path d="m808.53,374.27c.07,6.35,5.16,11.46,11.49,11.54,6.5.09,11.79-5.13,11.82-11.65.03-6.5-5.25-11.81-11.72-11.78-6.46.03-11.66,5.36-11.59,11.89Z"/><path d="m423.78,834.44c-6.58-.04-11.72,5.08-11.73,11.68,0,6.38,4.98,11.48,11.35,11.6,6.62.13,11.86-4.89,11.96-11.44.1-6.55-5.04-11.8-11.58-11.84Z"/><path d="m220.28,452.05c-.1,6.36,4.95,11.58,11.26,11.64,6.29.06,11.53-5.12,11.54-11.42.01-6.26-5.26-11.48-11.54-11.42-6.15.06-11.17,5.04-11.27,11.2Z"/><path d="m774.01,768.06c-6.24.05-11.19,5.02-11.23,11.27-.04,6.2,4.9,11.35,11.06,11.53,6.26.18,11.72-5.1,11.76-11.35.04-6.35-5.17-11.5-11.58-11.45Z"/><path d="m246.06,399.04c-6.36,0-11.48,5.17-11.4,11.5.08,6.08,5.15,11.15,11.27,11.29,6.25.14,11.52-5.04,11.57-11.37.05-6.38-5-11.42-11.43-11.41Z"/><path d="m206.34,494.25c.05,6.14,5.28,11.18,11.44,11.04,6.02-.14,10.81-5.13,10.76-11.19-.05-6.12-4.84-10.94-10.92-10.99-6.27-.05-11.34,4.95-11.29,11.14Z"/><path d="m500.14,228.28c5.97-.03,11-4.97,11.11-10.93.12-6.17-4.94-11.25-11.18-11.24-6.29.01-11.15,5-11.02,11.31.13,6.06,5.05,10.89,11.09,10.86Z"/><path d="m507.47,863.87c-6.02,0-10.96,4.87-11.06,10.9-.11,6.28,4.81,11.28,11.08,11.27,6.29-.01,11.18-5,11.07-11.29-.1-6.02-5.05-10.89-11.09-10.89Z"/><path d="m382.02,820.51c-6.21-.1-11.3,4.91-11.3,11.13,0,6.07,4.8,10.94,10.88,11.04,6.13.1,11.08-4.57,11.28-10.63.2-6.27-4.67-11.44-10.86-11.54Z"/><path d="m260.55,379.61c5.84,0,10.74-4.78,10.86-10.58.12-5.97-4.88-11.1-10.83-11.1-5.94,0-11,5.15-10.87,11.07.12,5.8,5.04,10.61,10.84,10.61Z"/><path d="m243.59,701.08c5.92-.05,10.61-4.75,10.64-10.67.04-5.93-4.58-10.69-10.49-10.82-6.15-.14-11.03,4.57-11.08,10.67-.04,6.09,4.78,10.88,10.92,10.83Z"/><path d="m885.59,486.67c-.08-5.66-4.8-10.37-10.44-10.42-5.88-.05-10.66,4.76-10.6,10.66.06,5.72,4.68,10.35,10.39,10.42,5.81.06,10.73-4.85,10.65-10.66Z"/><path d="m792.61,328.5c5.9.06,10.73-4.72,10.69-10.56-.04-5.6-4.8-10.37-10.43-10.46-5.84-.09-10.66,4.75-10.62,10.65.04,5.75,4.6,10.31,10.36,10.37Z"/><path d="m340.41,807.02c-5.82-.1-10.4,4.39-10.39,10.18,0,5.57,4.44,10.11,9.97,10.21,5.71.11,10.4-4.51,10.4-10.25s-4.38-10.05-9.99-10.15Z"/><path d="m858.98,658.34c-5.6.2-9.85,4.73-9.74,10.37.11,5.59,4.62,10.04,10.16,10.02,5.69-.02,10.39-4.8,10.27-10.44-.12-5.71-4.9-10.16-10.69-9.95Z"/><path d="m215.89,644.22c5.68.06,10.43-4.66,10.39-10.31-.04-5.69-4.78-10.22-10.55-10.09-5.58.13-9.92,4.63-9.87,10.26.04,5.59,4.49,10.08,10.04,10.15Z"/><path d="m639.64,228.9c5.58.19,10.49-4.55,10.56-10.19.07-5.57-4.81-10.43-10.4-10.35-5.53.08-10,4.61-10.05,10.19-.05,5.55,4.36,10.16,9.89,10.35Z"/><path d="m271.2,736.44c-5.57-.17-10.26,4.21-10.48,9.8-.23,5.66,4.02,10.32,9.64,10.59,5.79.27,10.65-4.22,10.78-9.96.12-5.49-4.42-10.26-9.93-10.43Z"/><path d="m873.92,616.36c-5.67-.05-10.33,4.68-10.26,10.4.07,5.5,4.64,10.06,10.13,10.12,5.64.05,10.33-4.71,10.26-10.42-.07-5.53-4.6-10.05-10.13-10.1Z"/><path d="m193.08,535.92c-.09,5.34,4.36,9.96,9.71,10.07,5.59.11,10.25-4.46,10.21-10.02-.04-5.33-4.62-9.89-9.94-9.9-5.34,0-9.89,4.48-9.98,9.85Z"/><path d="m681.7,242.67c5.45.07,9.94-4.23,10.08-9.65.14-5.38-4.18-9.92-9.63-10.09-5.67-.18-10.3,4.25-10.3,9.85,0,5.41,4.39,9.82,9.85,9.89Z"/><path d="m845.19,700.43c-5.34-.18-9.93,4.18-10.12,9.61-.19,5.44,4.02,10.03,9.42,10.29,5.39.26,10.05-3.97,10.34-9.36.3-5.61-4.03-10.34-9.64-10.53Z"/><path d="m704.01,838.88c-5.69-.19-10.24,4.16-10.26,9.82-.03,5.5,4.22,9.82,9.73,9.91,5.51.09,9.9-4.1,10.05-9.6.15-5.48-4.05-9.96-9.51-10.14Z"/><path d="m401.8,239.78c5.27.04,9.58-4.18,9.66-9.46.08-5.31-4.05-9.66-9.31-9.83-5.35-.17-10,4.35-9.96,9.69.03,5.2,4.4,9.56,9.61,9.59Z"/><path d="m549.1,879.58c-5.3.12-9.41,4.41-9.34,9.73.07,5.23,4.45,9.56,9.64,9.53,5.14-.03,9.6-4.48,9.63-9.62.03-5.43-4.45-9.77-9.93-9.64Z"/><path d="m598.12,213.86c5.16-.04,9.56-4.47,9.59-9.64.03-5.43-4.48-9.77-9.96-9.61-5.34.16-9.4,4.42-9.31,9.76.09,5.24,4.47,9.53,9.68,9.49Z"/><path d="m887.99,575.14c-5.32,0-9.51,4.17-9.55,9.5-.04,5.28,4.13,9.61,9.38,9.74,5.21.13,9.61-4.07,9.77-9.35.17-5.51-4.1-9.9-9.6-9.89Z"/><path d="m647.24,866.52c-5.22.03-9.49,4.34-9.52,9.6-.03,5.28,4.16,9.59,9.42,9.7,5.25.11,9.59-4.08,9.73-9.36.14-5.45-4.23-9.96-9.63-9.93Z"/><path d="m723.97,256.59c5.09-.16,9.11-4.4,9.02-9.51-.09-5.16-4.2-9.17-9.36-9.13-5.09.04-9.3,4.22-9.32,9.25-.02,5.22,4.44,9.56,9.65,9.39Z"/><path d="m274.9,336.24c5.09.06,9.31-4.03,9.4-9.13.1-5.22-3.79-9.32-8.98-9.49-5.3-.17-9.7,4.04-9.69,9.29.01,5.04,4.21,9.26,9.26,9.33Z"/><path d="m759.93,812.33c-5.02.03-8.9,3.92-8.93,8.93-.02,5.02,3.84,8.97,8.83,9.03,5.19.07,9.26-4.01,9.16-9.16-.09-4.97-4.08-8.84-9.07-8.8Z"/><path d="m345.56,266.54c4.97-.02,9.02-4.01,9.04-8.9.02-5.1-4.18-9.17-9.34-9.05-4.92.11-8.9,4.24-8.82,9.13.08,4.9,4.15,8.83,9.12,8.82Z"/><path d="m458.21,211.46c4.74-.01,8.71-3.92,8.77-8.65.07-4.7-3.82-8.72-8.56-8.86-4.74-.14-8.75,3.65-8.92,8.43-.18,4.98,3.77,9.09,8.71,9.08Z"/><path d="m862,397.31c4.77.02,8.68-3.81,8.77-8.6.1-4.76-3.71-8.77-8.45-8.92-4.88-.15-9.09,3.95-9.05,8.82.04,4.71,4.02,8.68,8.73,8.7Z"/><path d="m830.56,743.52c-4.96-.02-8.9,4.04-8.75,9.02.15,4.81,4.08,8.59,8.83,8.49,4.79-.1,8.56-3.99,8.53-8.8-.03-4.82-3.86-8.69-8.62-8.71Z"/><path d="m556.02,198.19c4.65.06,8.46-3.66,8.53-8.33.07-4.72-3.58-8.48-8.28-8.53-4.73-.05-8.48,3.59-8.54,8.28-.06,4.67,3.66,8.51,8.29,8.58Z"/><path d="m902.47,534.45c-4.67,0-8.51,3.8-8.5,8.39,0,4.59,3.86,8.43,8.49,8.45,4.63.02,8.41-3.76,8.42-8.45.02-4.71-3.68-8.41-8.41-8.4Z"/><path d="m298.69,794.26c-4.59-.25-8.58,3.44-8.77,8.1-.19,4.67,3.4,8.63,8.03,8.85,4.53.22,8.61-3.53,8.84-8.12.23-4.54-3.48-8.58-8.11-8.84Z"/><path d="m197.05,578.11c.09-4.54-3.74-8.54-8.3-8.66-4.61-.12-8.46,3.64-8.55,8.33-.08,4.71,3.57,8.55,8.22,8.65,4.53.1,8.54-3.76,8.63-8.32Z"/><path d="m834.81,340.67c4.45-.1,8.03-3.88,7.92-8.36-.11-4.52-3.86-8.12-8.3-8-4.47.13-8.02,3.88-7.93,8.38.1,4.49,3.83,8.08,8.31,7.98Z"/><path d="m765.37,269.86c4.5-.04,8.09-3.71,8.06-8.22-.03-4.47-3.76-8.17-8.2-8.11-4.49.06-8.08,3.75-8.05,8.25.03,4.51,3.69,8.12,8.19,8.08Z"/><path d="m889.46,453.06c4.51,0,8.09-3.58,8.11-8.14.02-4.51-3.59-8.19-8.07-8.21-4.44-.02-8.12,3.68-8.14,8.17-.01,4.49,3.63,8.18,8.09,8.18Z"/><path d="m591.11,895.52c-4.53.07-8.07,3.7-8,8.22.07,4.51,3.72,8.03,8.26,7.96,4.55-.06,8.05-3.68,7.98-8.22-.07-4.55-3.68-8.03-8.24-7.96Z"/><path d="m228.8,724.72c-4.15.08-7.53,3.59-7.41,7.69.11,4.09,3.7,7.49,7.77,7.38,4.2-.11,7.41-3.51,7.32-7.75-.1-4.26-3.4-7.41-7.68-7.33Z"/><path d="m201.34,668.3c-4.08.1-7.48,3.7-7.38,7.78.11,4.11,3.62,7.4,7.8,7.29,4.26-.11,7.4-3.43,7.29-7.71-.11-4.2-3.54-7.47-7.71-7.36Z"/><path d="m289.64,292.62c4.08-.11,7.51-3.7,7.42-7.77-.09-4.1-3.66-7.52-7.73-7.43-4.15.1-7.45,3.57-7.36,7.75.08,4.13,3.62,7.57,7.68,7.45Z"/><path d="m409.47,880.7c-3.92-.12-7.38,3.11-7.53,7.05-.15,3.88,3.15,7.38,7.07,7.51,3.91.13,7.41-3.15,7.54-7.06.12-3.92-3.14-7.38-7.08-7.5Z"/><path d="m451.01,895.13c-3.98.05-7.15,3.38-7.08,7.43.07,4.07,3.29,7.22,7.32,7.16,3.95-.06,7.16-3.4,7.11-7.4-.05-3.96-3.4-7.24-7.36-7.19Z"/><path d="m816.08,786.67c-4.11-.01-7.31,3.19-7.28,7.27s3.29,7.22,7.4,7.14c4.11-.08,7.18-3.35,7.03-7.48-.14-3.93-3.23-6.91-7.15-6.92Z"/><path d="m513.83,182.24c3.85.24,7.2-2.79,7.36-6.66.16-3.89-2.87-7.17-6.74-7.29-3.63-.11-6.86,2.79-7.18,6.45-.32,3.76,2.73,7.26,6.56,7.5Z"/><path d="m190.06,444.82c3.79.01,7.07-3.31,7.01-7.1-.06-3.66-3.09-6.7-6.79-6.81-3.96-.11-7.12,2.87-7.17,6.8-.06,3.86,3.11,7.1,6.95,7.11Z"/><path d="m204.04,403.24c3.77.09,7.13-3.16,7.18-6.95.05-3.85-3.15-7.01-7.06-6.97-3.78.04-6.75,2.91-6.89,6.64-.14,3.86,2.95,7.19,6.77,7.28Z"/><path d="m367.62,866.54c-3.69.02-6.76,2.97-6.9,6.67-.16,3.9,2.87,7.17,6.73,7.29,3.88.11,7.07-2.98,7.11-6.88.04-3.92-3.07-7.09-6.93-7.07Z"/><path d="m175.41,486.41c3.66.12,6.77-2.9,6.82-6.63.05-3.71-3-6.82-6.67-6.8-3.48.02-6.46,2.91-6.61,6.43-.15,3.72,2.77,6.89,6.46,7Z"/><path d="m689.09,884.04c-3.74.05-6.72,3.13-6.6,6.81.12,3.65,3.35,6.63,7,6.47,3.52-.16,6.31-3.1,6.32-6.64,0-3.79-2.92-6.68-6.72-6.63Z"/><path d="m745.65,856.58c-3.79-.05-6.77,2.87-6.76,6.62,0,3.74,3.03,6.73,6.75,6.68,3.7-.05,6.66-3.16,6.54-6.88-.12-3.58-2.96-6.37-6.52-6.42Z"/><path d="m916.96,494.64c-3.63-.01-6.46,2.66-6.63,6.27-.18,3.74,2.69,6.9,6.37,7.02,3.63.12,6.87-2.93,6.95-6.55.08-3.67-2.95-6.72-6.69-6.73Z"/><path d="m492.74,909.92c-3.53.15-6.3,3.06-6.32,6.63-.02,3.8,2.9,6.71,6.68,6.67,3.74-.05,6.72-3.12,6.61-6.81-.11-3.65-3.33-6.65-6.98-6.49Z"/><path d="m807.33,282.48c3.61-.08,6.33-2.97,6.18-6.58-.14-3.47-2.77-6.02-6.26-6.05-3.63-.04-6.44,2.75-6.41,6.34.03,3.59,2.9,6.37,6.49,6.29Z"/><path d="m256.06,782.27c-3.46.19-5.97,2.87-5.94,6.34.03,3.63,2.84,6.36,6.47,6.27,3.61-.09,6.32-2.98,6.17-6.58-.15-3.59-3.08-6.23-6.7-6.03Z"/><path d="m173.83,613.45c-3.56.17-6.22,3.19-6,6.8.2,3.38,3.04,6.03,6.41,5.98,3.53-.05,6.35-3.04,6.24-6.61-.11-3.58-3.1-6.35-6.65-6.18Z"/><path d="m218.75,360.74c3.54-.08,6.35-3.05,6.24-6.62-.11-3.57-3.12-6.36-6.65-6.18-3.53.18-6.23,3.24-6.01,6.81.2,3.34,3.12,6.06,6.42,5.99Z"/><path d="m359.76,222.08c3.51.12,6.49-2.74,6.55-6.29.07-3.53-2.84-6.51-6.34-6.52-3.33,0-6.15,2.72-6.3,6.08-.16,3.6,2.56,6.6,6.09,6.72Z"/><path d="m416.21,194.37c3.31.08,6.12-2.71,6.13-6.1.02-3.44-2.66-6.17-6.12-6.01-3.6.16-5.65,2.18-5.9,5.77-.23,3.35,2.56,6.26,5.88,6.34Z"/><path d="m901.36,677.21c-3.24-.2-5.98,2.62-5.79,5.89.2,3.48,2.23,5.28,5.24,5.58,3.73.04,6.4-2.58,6.2-5.88-.2-3.47-2.24-5.39-5.65-5.59Z"/><path d="m915.56,635.36c-3.36-.14-6.01,2.48-5.84,5.82.18,3.48,2.22,5.41,5.62,5.64,3.23.22,5.92-2.61,5.85-6.39-.37-2.86-2.11-4.93-5.63-5.07Z"/><path d="m654.38,182.44c3.47-.11,5.47-2.03,5.73-5.49.24-3.24-2.5-6.01-6.13-6.02-2.93.39-5.08,2.08-5.32,5.58-.23,3.33,2.39,6.04,5.73,5.93Z"/><path d="m160.62,515.88c-2.89.24-4.93,1.99-5.15,5.49-.21,3.31,2.43,6.11,5.69,5.98,3.46-.14,5.44-2.15,5.77-5.53.31-3.21-2.45-5.92-6.31-5.94Z"/><path d="m325.21,853.29c-2.91.4-5,2.15-5.16,5.65-.16,3.33,2.5,5.98,5.83,5.83,3.52-.15,5.39-2.25,5.66-5.61.26-3.17-2.67-5.94-6.33-5.87Z"/><path d="m632.32,912.35c-3.01.29-5,2.12-5.17,5.61-.16,3.29,2.58,6.09,5.81,5.88,3.43-.22,5.42-2.24,5.68-5.64.24-3.19-2.62-5.89-6.32-5.84Z"/><path d="m534.37,925.62c-2.9.23-4.68,2.15-4.95,5.32-.26,3.02,2.5,5.65,5.61,5.51,3.34-.15,5.12-2.11,5.37-5.31.24-3.06-2.46-5.59-6.02-5.53Z"/><path d="m903.98,408.5c2.97.15,5.58-2.67,5.5-5.63-.08-3-2.77-5.5-5.78-5.36-3.01.14-5.57,2.88-5.24,5.85.36,3.21,2.35,4.99,5.52,5.14Z"/><path d="m876.44,352.2c3.19-.3,5.2-1.98,5.56-5.22.33-2.98-2.37-5.79-5.38-5.86-2.99-.07-5.81,2.67-5.59,5.65.24,3.24,2.16,5.02,5.42,5.42Z"/><path d="m887.2,719.45c-3.14-.27-5.73,2.13-5.81,5.26-.08,3.13,2.37,5.67,5.52,5.55,3.33-.12,4.99-2.06,5.39-5.23-.23-3.24-1.77-5.29-5.1-5.58Z"/><path d="m304.02,248.6c3.07-.06,5.73-2.8,5.39-5.8-.36-3.22-2.34-5.19-5.58-5.13-3.22.07-5.17,2.08-5.41,5.32-.23,3.01,2.56,5.67,5.6,5.61Z"/><path d="m695.98,196.64c3.58-.09,6.05-2.69,5.72-5.8-.34-3.24-2.27-5.03-5.56-5.04-3.15-.02-5.6,2.63-5.28,5.76.33,3.25,2.3,4.93,5.12,5.09Z"/><path d="m929.92,594.04c-3.3.03-5,2.06-5.29,6.79,1.37.92,3.21,3.06,5.3,3.34,3.2.44,5.22-1.96,5.12-5.21-.09-3.03-2.05-4.95-5.13-4.92Z"/><path d="m612.83,167.22c2.07-.47,3.75-2.66,5.6-4.08-.02-.69-.05-1.37-.07-2.06-1.94-1.34-3.76-3.52-5.85-3.81-3.14-.43-5.32,1.92-5.18,5.18.13,3.19,2.27,5.51,5.5,4.77Z"/><path d="m801.65,830.63c-3.2-.03-5.62,2.02-5.05,5.25.36,2.08,2.53,3.84,3.89,5.75.68,0,1.37.02,2.05.03,1.42-1.87,3.68-3.59,4.07-5.65.6-3.17-1.75-5.34-4.96-5.38Z"/><path d="m232.99,317.58c3.05.09,5.03-1.69,5.2-4.78.18-3.3-1.73-5.7-4.91-5.36-2.09.22-3.98,2.33-5.41,3.24.25,4.65,1.8,6.8,5.12,6.9Z"/><path d="m738.15,210.09c1.93-.37,3.53-2.53,6.57-4.9-3.16-2.22-4.86-4.3-6.81-4.58-2.96-.43-4.98,1.77-4.91,4.86.07,3.1,2.21,5.18,5.14,4.62Z"/><path d="m471.66,166.36c.67,0,1.33,0,2,0,1.31-1.78,3.41-3.42,3.75-5.37.51-2.96-1.62-5.01-4.71-5.03-3.1-.02-5.21,1.99-4.68,5,.35,1.95,2.37,3.6,3.64,5.39Z"/><path d="m931.38,454.97c-2.86-.42-5.01,1.81-4.42,4.53.37,1.71,2.83,4.07,4.39,4.1,1.76.04,3.58-2.21,5.37-3.47-.02-.64-.04-1.29-.07-1.93-1.75-1.13-3.4-2.96-5.28-3.23Z"/><path d="m872.47,762.13c-2.87-.65-4.95,1.61-4.44,4.49.32,1.84,2.24,3.4,3.44,5.08.69-.01,1.38-.02,2.08-.03,1.14-1.74,3.31-3.61,3.12-5.18-.21-1.67-2.46-3.97-4.19-4.36Z"/><path d="m182.69,717.57c.22,1.71,2.48,4.24,4.05,4.41,1.74.19,3.73-1.89,5.61-2.97.04-.66.07-1.31.11-1.97-1.65-1.26-3.14-3.19-4.98-3.62-2.85-.66-5.12,1.43-4.78,4.15Z"/><path d="m279.57,844.41c-.73,2.85,1.51,5.01,4.36,4.62,1.85-.25,3.47-2.2,5.19-3.38,0-.67.01-1.34.02-2-1.71-1.2-3.51-3.47-5.09-3.32-1.67.15-4.04,2.36-4.48,4.09Z"/><path d="m570.58,154.01c2.05-2.85,4.21-4.55,4.08-6.04-.14-1.57-2.26-3.84-3.89-4.22-2.61-.6-4.72,1.44-4.28,4.18.28,1.75,2.1,3.25,4.09,6.09Z"/><path d="m142.63,563.24c-.7,2.67,1.42,4.73,4.08,4.4,1.75-.21,3.3-2.05,6.25-4.05-2.87-2.05-4.53-4.15-6.05-4.06-1.56.1-3.87,2.12-4.28,3.7Z"/><path d="m849.3,294.69c1.71-.33,3.13-2.15,5.92-4.22-2.94-2-4.69-4.11-6.14-3.93-1.55.2-3.68,2.39-4.03,4.03-.57,2.67,1.53,4.64,4.25,4.12Z"/><path d="m155.7,661.39c1.42,1.34,2.71,3.49,4.3,3.76,1.2.2,2.81-2.02,5.29-4.02-2.63-1.68-4.27-3.56-5.66-3.39-1.44.18-2.63,2.35-3.93,3.65Z"/><path d="m210.83,773.9c.07,1.43,2.19,2.76,3.42,4.14,1.42-1.33,3.66-2.47,4-4.03.27-1.22-1.82-2.95-3.6-5.53-1.88,2.51-3.88,4.02-3.81,5.42Z"/><path d="m572.75,945.46c1.44,1.34,2.73,3.48,4.36,3.77,1.18.21,2.8-2.01,5.28-3.98-2.63-1.71-4.27-3.62-5.63-3.44-1.47.2-2.68,2.35-4,3.65Z"/><path d="m944.64,553.56c-1.57.27-2.81,2.47-4.19,3.83,1.31,1.27,2.54,3.43,3.97,3.57,1.4.14,3-1.77,5.6-3.5-2.51-1.93-4.15-4.12-5.38-3.91Z"/><path d="m783.52,219.83c-.4-1.56-2.67-2.65-4.14-3.94-1.18,1.4-3.23,2.78-3.28,4.22-.05,1.4,1.97,2.86,3.87,5.32,1.77-2.62,3.86-4.42,3.56-5.6Z"/><path d="m251,270.91c-.24-1.5-2.2-2.73-3.41-4.07-1.22,1.2-3.25,2.3-3.44,3.65-.18,1.28,1.57,2.82,3.17,5.34,1.83-2.31,3.86-3.78,3.69-4.91Z"/><path d="m731.55,901.65c-1.49.19-2.77,2.11-4.14,3.29,1.13,1.28,2.12,3.35,3.44,3.6,1.24.23,2.85-1.47,5.35-2.94-2.18-1.95-3.56-4.09-4.66-3.95Z"/><path d="m671.64,932.66c.22,1.24,2.09,2.19,3.25,3.26,1.06-1.18,2.84-2.3,2.96-3.56.1-1.16-1.6-2.48-3.36-4.89-1.5,2.56-3.05,4.03-2.84,5.19Z"/><path d="m374.62,176.69c1.09.05,2.26-1.56,4.3-3.15-2.19-1.31-3.53-2.74-4.61-2.57-1.09.17-2.74,2-2.67,2.99.08,1.05,1.88,2.68,2.98,2.73Z"/><path d="m855.08,808.23c-.01,1.06,1.64,2.83,2.77,3,1.06.16,2.37-1.35,4.53-2.76-2.06-1.51-3.27-3.08-4.34-2.99-1.13.09-2.96,1.76-2.97,2.75Z"/><path d="m434.02,943.9c.05,1.02,1.59,2.69,2.54,2.73.94.04,2.61-1.51,2.75-2.52.13-.98-1.29-2.17-2.48-3.95-1.34,1.68-2.85,2.75-2.8,3.74Z"/><path d="m528.65,136c.97.13,2.15-1.28,3.96-2.49-1.72-1.33-2.81-2.82-3.79-2.76-1.03.07-1.96,1.63-2.93,2.54.92.97,1.75,2.57,2.77,2.71Z"/><path d="m317.98,203.84c.98.14,2.17-1.26,4-2.46-1.71-1.34-2.78-2.83-3.76-2.77-1.03.06-1.98,1.6-2.96,2.49.9.98,1.71,2.6,2.72,2.74Z"/><path d="m392.44,929.86c.09,1.01,1.7,2.62,2.64,2.62.95,0,2.56-1.61,2.64-2.63.09-.99-1.38-2.12-2.65-3.84-1.26,1.72-2.72,2.85-2.64,3.84Z"/><path d="m784.9,877.49c-.07.92,1.39,2.59,2.39,2.77.94.17,2.15-1.18,4-2.33-1.67-1.4-2.69-2.9-3.65-2.86-1,.03-2.67,1.5-2.73,2.43Z"/><path d="m918.3,363.61c.87-.79,2.3-1.5,2.44-2.41.13-.86-1.09-1.93-2.18-3.62-1.21,1.59-2.51,2.55-2.45,3.41.06.92,1.41,1.75,2.19,2.61Z"/><path d="m430.96,148.61c.88.03,1.79-1.26,3.34-2.48-1.7-1.04-2.79-2.23-3.65-2.08-.89.15-1.57,1.6-2.33,2.48.88.75,1.74,2.06,2.65,2.09Z"/><path d="m162.51,384.04c.88.13,1.95-1.04,3.63-2.06-1.54-1.23-2.46-2.54-3.35-2.51-.88.02-1.74,1.38-2.6,2.15.77.86,1.45,2.29,2.33,2.42Z"/><path d="m353.03,913.13c-.87.09-2.17,1.54-2.21,2.45-.04.84,1.33,1.75,2.62,3.27,1.02-1.66,2.21-2.75,2.05-3.57-.18-.9-1.66-2.22-2.46-2.15Z"/><path d="m129.99,605.29c-.07.78,1.31,2.46,1.8,2.37,1.04-.18,2.48-1.13,2.69-2.02.2-.86-.95-2.02-1.98-3.93-1.26,1.69-2.42,2.58-2.51,3.57Z"/><path d="m239.73,830.07c.25,1,1.42,2.35,2.31,2.43.84.08,1.81-1.29,3.44-2.59-1.78-1.04-2.79-2.09-3.77-2.06-.74.03-2.13,1.62-1.98,2.21Z"/></svg>