<?xml version="1.0" encoding="UTF-8"?><svg id="Layer_1" xmlns="http://www.w3.org/2000/svg" viewBox="0 0 1080 1080"><path d="m101.84,275.59h421.26c8.46,0,16.58,3.36,22.56,9.34l329.14,329.13c20.1,20.1,54.47,5.86,54.47-22.56v-244.84c0-17.62,14.28-31.91,31.91-31.91h16.98c17.62,0,31.91,14.28,31.91,31.91v425.84c0,17.62-14.28,31.91-31.91,31.91h-425.86c-17.62,0-31.91-14.28-31.91-31.91v-16.98c0-17.62,14.28-31.91,31.91-31.91h241.26c28.35,0,42.62-34.22,22.67-54.36l-303.02-305.87c-5.99-6.05-14.15-9.45-22.67-9.45H101.84c-17.62,0-31.91-14.28-31.91-31.91v-14.53c0-17.62,14.28-31.91,31.91-31.91Z"/></svg>