<?xml version="1.0" encoding="UTF-8"?><svg id="Layer_1" xmlns="http://www.w3.org/2000/svg" viewBox="0 0 1080 1080"><path id="_4" d="m977.72,526.1h0s-340.66-.01-340.66-.01h0c-45.92,0-83.14-37.23-83.14-83.15h0V102.28h-.01c-.05-7.59-6.25-13.73-13.9-13.73s-13.85,6.14-13.9,13.73h-.01v340.66h0c0,45.92-37.23,83.14-83.14,83.14h0s-340.66,0-340.66,0h0c-7.59.06-13.73,6.26-13.73,13.91s6.14,13.85,13.73,13.9h0s340.66.01,340.66.01h0c45.92,0,83.14,37.23,83.14,83.15h0v340.66h.01c.05,7.59,6.25,13.73,13.9,13.73s13.85-6.14,13.9-13.73h.01v-340.66h0c0-45.92,37.23-83.14,83.14-83.14h0s340.66,0,340.66,0h0c7.59-.06,13.73-6.26,13.73-13.91s-6.14-13.85-13.73-13.9Z"/></svg>