<?xml version="1.0" encoding="UTF-8"?><svg id="Layer_1" xmlns="http://www.w3.org/2000/svg" viewBox="0 0 1080 1080"><g id="_7APish.tif"><path d="m106.07,524.65c13.52-28.06,35.77-38.35,66.62-36.29,28.87,1.92,57.97,0,86.95.54,31.06.57,51.84,21.49,51.84,51.11,0,29.6-20.78,50.62-51.8,51.22-28.98.56-58.08-1.38-86.95.55-30.86,2.06-53.06-8.34-66.67-36.29,0-10.28,0-20.56,0-30.83Z"/><path d="m568.54,98.11c24.84,18.03,34.16,41.91,31.19,72.68-2.29,23.74.03,47.9-.61,71.84-.79,29.6-21.66,50.2-50.11,50.63-29.69.45-51.4-20.4-52.16-51.23-.63-25.66,1.32-51.45-.52-76.99-2.22-30.87,8.02-53.36,36.25-66.93,11.99,0,23.98,0,35.97,0Z"/><path d="m948.28,351.41c-5.85,7.68-14.14,25.41-28.01,35.29-27.04,19.24-56.88,34.68-86.17,50.58-27.74,15.05-56.73,7.47-71.42-17.17-15.71-26.35-8.12-55.2,20.36-72.46,29.23-17.71,58.55-35.49,88.97-50.99,35.07-17.87,75,6.27,76.27,54.75Z"/><path d="m709.16,338.43c-45.55.69-73.02-38.35-56.74-71.96,16.71-34.53,36.75-67.63,57.6-99.9,14.63-22.65,42.99-27.24,66.12-14.42,23.4,12.97,34.32,41.72,21.71,66.22-17.2,33.4-35.65,66.41-56.78,97.4-8.2,12.03-25.15,18.08-31.91,22.66Z"/><path d="m211.55,790.35c-23.86-2.84-41.5-12.52-49.71-35.64-8.29-23.33-2.12-44.23,17.04-56.95,32.69-21.69,67.08-41.1,102.02-59.02,21.49-11.02,47.72-1.29,61.1,18.26,14.38,21.02,14.38,51.1-6.22,65.07-35.87,24.33-74.85,44.07-112.69,65.46-3.55,2.01-8.22,2.05-11.54,2.82Z"/><path d="m450.85,284.24c-.2,24.34-12.01,40.82-32.88,48.27-21.56,7.7-44.3,4.8-57.59-15.37-20.12-30.54-38.26-62.58-54.76-95.24-10.77-21.32-.74-47.43,19.09-60.59,18.73-12.43,48.65-13.54,61.17,4.24,23.87,33.89,43.1,71.07,63.84,107.11,1.92,3.34.89,8.39,1.14,11.57Z"/><path d="m218.15,298.06c3.4,1.09,12.9,2.59,20.86,6.94,26.19,14.32,52.15,29.13,77.57,44.77,27.35,16.83,35.26,47.58,19.91,72.82-14.81,24.35-43.94,31.55-71.61,16.47-26.95-14.69-53.66-29.93-79.7-46.17-21.31-13.29-29.09-37.26-21.77-60.3,6.46-20.32,26.42-34.45,54.74-34.53Z"/><path d="m362.37,929.95c-39.77-.95-63.79-34.66-49.74-63.64,17.04-35.15,37.24-68.98,58.64-101.71,13.33-20.39,38.88-23.09,59.31-10.75,19.91,12.03,29.54,36.58,18.68,57.53-17.62,33.99-36.57,67.5-57.8,99.3-7.08,10.61-22.9,15.38-29.08,19.27Z"/><path d="m507.02,882.25c.02-18.77-.7-37.57.2-56.3,1.14-23.79,18.51-39.46,41.61-39.07,22.14.38,39.24,15.49,39.8,38.15.97,39.22.93,78.5.05,117.73-.53,23.77-18.43,39.53-41.49,39.12-22.96-.4-39.18-16.38-40.05-40.77-.7-19.6-.14-39.24-.12-58.86Z"/><path d="m741.41,925.61c-4.78-3.78-17.73-9.82-24.28-19.99-19.86-30.82-37.8-62.93-55.39-95.14-11.09-20.32-5.09-41.08,13.99-50.31,19.78-9.56,37.12-4.77,48.47,14.21,19.29,32.22,38.61,64.5,55.98,97.77,13.48,25.83-2.69,52.63-38.78,53.46Z"/><path d="m768.89,694.29c.98-30.75,23.84-44.3,46.7-32.24,33.25,17.54,65.67,36.75,97.8,56.3,16.33,9.93,20.17,25.92,10.57,42.24-9.63,16.37-25.1,20.46-42.03,10.99-32.83-18.37-65.7-36.75-97.51-56.78-8.22-5.17-12.59-16.45-15.53-20.5Z"/><path d="m898.89,509.43c17.02,0,34.71-2.81,50.79,1.07,9.52,2.3,21.19,14.02,23.52,23.56,3.74,15.28-7.47,25.84-23.63,26.16-34.87.68-69.89,1.79-104.57-.92-8.72-.68-21.09-14.02-23.4-23.57-3.69-15.23,7.44-25.48,23.68-26.14,17.84-.73,35.73-.17,53.6-.16Z"/></g></svg>