<?xml version="1.0" encoding="UTF-8"?><svg id="Layer_1" xmlns="http://www.w3.org/2000/svg" viewBox="0 0 1080 1080"><path d="m685.19,607.52l-44.24-1.2,36.54,24.93,105.25,71.63,43.18,29.58c80.18,54.66,91.36,172.08,17.52,235.15-3.17,2.7-6.5,5.41-9.97,7.81-3.47,2.55-6.95,4.81-10.57,7.06-83.05,50.3-192.07,3.45-219.55-89.34l-14.8-50.15-35.94-121.48-12.53-42.34-12.53,42.34-36.09,121.63-14.95,50c-27.48,92.8-136.35,139.65-219.55,89.34-3.47-2.25-7.1-4.5-10.57-7.06-3.47-2.55-6.8-5.1-9.97-7.81-73.84-63.07-62.66-180.64,17.67-235.3l43.34-29.43,105.1-71.63,36.54-24.93-44.39,1.2-127.44,3.45-52.4,1.35c-97.24,2.7-175.61-85.89-153.27-180.04,1.06-4.05,2.12-8.11,3.48-12.16,1.36-4.05,2.87-7.96,4.38-11.71,37.45-89.34,153.42-115.17,230.58-56.16l41.52,31.83,101.02,77.33,35.03,26.88-14.8-41.59-42.73-119.53-17.52-49.1c-32.61-91.14,27.79-192.65,124.88-200.46,4.08-.45,8.31-.6,12.69-.6s8.45.15,12.69.6c96.94,7.81,157.34,109.46,124.72,200.61l-17.51,49.1-42.73,119.38-14.8,41.44,35.03-26.73,101.17-77.33,41.52-31.83c77.16-58.86,192.83-33.18,230.43,56.16,1.51,3.75,3.02,7.81,4.38,11.86,1.36,4.05,2.41,8.11,3.47,12.16,22.35,94.15-56.17,182.59-153.41,180.04l-52.4-1.5-127.45-3.45Z"/></svg>