<?xml version="1.0" encoding="UTF-8"?><svg id="Layer_1" xmlns="http://www.w3.org/2000/svg" viewBox="0 0 1080 1080"><path d="m771.14,991.46c-15.24,0-30.54-3.69-44.7-11.12l-156.69-82.37c-18.62-9.79-40.91-9.79-59.53,0l-156.69,82.37c-32.61,17.12-71.21,14.31-100.91-7.28-29.73-21.6-44.36-57.53-38.16-93.77l29.94-174.46c3.56-20.76-3.32-41.92-18.42-56.62l-126.75-123.55c-26.31-25.67-35.59-63.32-24.21-98.27,11.34-34.95,40.97-59.94,77.34-65.24l175.17-25.45c20.86-3.01,38.84-16.1,48.19-35l78.33-158.73c16.25-32.95,49.2-53.42,85.95-53.42h.03c36.74,0,69.66,20.47,85.91,53.44l78.36,158.72c9.31,18.9,27.29,31.98,48.15,35l175.17,25.45c36.37,5.3,66.03,30.31,77.38,65.25,11.34,34.95,2.07,72.6-24.25,98.25l-126.75,123.55c-15.1,14.7-21.98,35.86-18.42,56.62l29.94,174.46c6.23,36.22-8.4,72.15-38.13,93.75-16.8,12.19-36.47,18.42-56.25,18.42Zm-231.15-132.73c15.31,0,30.65,3.67,44.6,11.02l156.69,82.37c22.05,11.56,47.21,9.72,67.39-4.88,20.15-14.65,29.66-38.03,25.43-62.58l-29.94-174.46c-5.32-31.1,4.98-62.82,27.56-84.83l126.75-123.55c17.85-17.39,23.91-41.91,16.22-65.58-7.69-23.69-27.02-39.98-51.68-43.55l-175.17-25.45c-31.22-4.54-58.21-24.14-72.13-52.45l-78.36-158.72c-11.01-22.33-32.44-35.66-57.33-35.68h-.03c-24.89,0-46.33,13.34-57.36,35.68l-78.33,158.73c-13.99,28.29-40.97,47.9-72.16,52.44l-175.17,25.45c-24.65,3.57-43.95,19.84-51.64,43.51-7.72,23.69-1.66,48.22,16.19,65.61l126.75,123.55c22.59,22.01,32.88,53.72,27.56,84.83l-29.94,174.46c-4.2,24.55,5.32,47.95,25.47,62.58,20.18,14.66,45.38,16.41,67.35,4.88l156.69-82.37c13.95-7.35,29.29-11.02,44.6-11.02Z"/><path d="m519.74,727.36l-85.36,44.88c-31.94,16.79-69.27-10.33-63.17-45.9l16.3-95.05c2.42-14.12-2.26-28.54-12.52-38.54l-69.06-67.32c-25.84-25.19-11.58-69.08,24.13-74.27l95.44-13.87c14.18-2.06,26.44-10.97,32.78-23.82l42.68-86.48c15.97-32.36,62.12-32.36,78.09,0l42.68,86.48c6.34,12.85,18.6,21.76,32.78,23.82l95.44,13.87c35.71,5.19,49.97,49.08,24.13,74.27l-69.06,67.32c-10.26,10-14.94,24.41-12.52,38.54l16.3,95.05c6.1,35.57-31.23,62.69-63.17,45.9l-85.36-44.88c-12.68-6.67-27.84-6.67-40.52,0Z"/></svg>