<?xml version="1.0" encoding="UTF-8"?>
<svg id="Layer_1" xmlns="http://www.w3.org/2000/svg" version="1.1" viewBox="0 0 192 192">
  <!-- Generator: Adobe Illustrator 30.1.0, SVG Export Plug-In . SVG Version: 2.1.1 Build 136)  -->
  <defs>
    <style>
      .st0 {
        fill: #fff;
      }
    </style>
  </defs>
  <g>
    <path class="st0" d="M1.85,66.38h13.7l-.05,13.33,12.39-13.33h15.06l-12.71,13.52,12.9,19.33h-15.67l-6.89-11.5-5.06,4.79.05,6.71H1.87v-32.83l-.02-.02Z"/>
    <path class="st0" d="M44.3,66.38h17.22l3.09,9.43,3.14,9.52,3.14-9.52,3.09-9.43h17.22v32.83h-11.63l.05-16.46.05-4.22-1.41,4.22-5.63,16.46h-10.19l-5.63-16.46-1.41-4.22.05,4.22.05,16.46h-11.21v-32.83h.02Z"/>
    <path class="st0" d="M94.08,66.38h13.75v32.83h-13.75v-32.83Z"/>
    <path class="st0" d="M122.36,82.6l-13.23-16.24h15.15l6.76,8.86,6.76-8.86h14.59l-13.23,16.19,13.6,16.66h-15.3l-7.04-9.3-6.94,9.3h-14.68l13.55-16.61h.02Z"/>
    <path class="st0" d="M176.46,80.77c-.76-4.17-3.51-6.19-6.84-6.19-4.17,0-6.89,2.57-6.89,8.25s2.72,8.25,6.84,8.25c3.46,0,6.29-2.15,6.94-6.52h13.65c-.89,9.67-9.01,15.48-20.88,15.48-12.47,0-20.88-6.42-20.88-17.27s8.41-17.27,20.88-17.27c11.68,0,19.84,5.72,20.88,15.25,0,0-13.7,0-13.7,0Z"/>
  </g>
  <g>
    <path class="st0" d="M1.85,117.82h2.19c.91,4.59,3.88,6.91,9.05,6.91,4.69,0,7.53-1.85,7.53-4.69,0-3.55-4.62-4.19-9.21-5.06-4.62-.84-9.21-1.95-9.21-6.34,0-3.61,3.41-6.41,9.31-6.41,6.24,0,10.36,3.08,11.33,8.51h-2.12c-.91-4.42-4.15-6.81-9.21-6.81-4.46,0-7.18,1.92-7.18,4.49,0,3.28,4.02,4.09,8.31,4.89,4.89.94,10.12,1.88,10.12,6.54,0,3.92-3.45,6.57-9.65,6.57s-10.29-2.98-11.26-8.61h.02Z"/>
    <path class="st0" d="M35.86,104.36h-10.09v-1.75h22.31v1.75h-10.09v21.72h-2.15v-21.72h.02Z"/>
    <path class="st0" d="M51.06,116.36v-13.74h2.15v13.7c0,5.36,3.48,8.31,8.51,8.31s8.51-2.94,8.51-8.31v-13.7h2.08v13.74c0,6.34-4.32,10.09-10.66,10.09s-10.59-3.78-10.59-10.09Z"/>
    <path class="st0" d="M75.27,102.61h8.98c7.35,0,12.42,4.29,12.42,11.74s-5.09,11.74-12.42,11.74h-8.98v-23.47ZM77.41,104.39v19.94h6.74c6.2,0,10.36-3.58,10.36-9.99s-4.15-9.95-10.36-9.95h-6.74Z"/>
    <path class="st0" d="M99.63,102.61h2.12v23.45h-2.12v-23.45Z"/>
    <path class="st0" d="M104.71,114.34c0-7.77,5.26-12.14,12.04-12.14s12.04,4.35,12.04,12.14-5.26,12.14-12.04,12.14-12.04-4.32-12.04-12.14ZM126.6,114.34c0-6.44-4.12-10.36-9.85-10.36s-9.85,3.92-9.85,10.36,4.12,10.36,9.85,10.36,9.85-3.92,9.85-10.36Z"/>
  </g>
</svg>