<?xml version="1.0" encoding="utf-8"?>
<!-- Generator: Adobe Illustrator 27.8.1, SVG Export Plug-In . SVG Version: 6.00 Build 0)  -->
<svg version="1.1" id="Layer_1" xmlns="http://www.w3.org/2000/svg" xmlns:xlink="http://www.w3.org/1999/xlink" x="0px" y="0px"
	 viewBox="0 0 192 192" style="enable-background:new 0 0 192 192;" xml:space="preserve">
<style type="text/css">
	.st0{fill:#FF7300;}
</style>
<g>
	<g>
		<path class="st0" d="M24.9,108l0.3,0.1l-0.1,0.3l1.6,2.2l-0.3,0.4c0.1,0.5,0.1,0.9,0.1,1.2l-0.1,0.3l0.1,0.3
			c-0.1,0.8-0.2,1.2-0.3,1.2l0.1,0.3l-0.4,0.7v0.3c0.7,1.1,1,1.8,1,2.2h0.1c0.1-1,0.5-2.1,1.3-3.4c1.1-2.5,1.9-3.7,2.4-3.7h0.3
			c0.3,0.8,0.5,1.3,0.9,1.5l0.7-0.1c0.3,0.9,0.4,1.5,0.4,1.6c0,0.5-2.1,4.9-6.2,13.1l-0.4,0.3c-0.2,0-0.3-0.1-0.3-0.3
			c0.2,0,0.3-0.1,0.3-0.3v-0.5c0-0.4-0.2-0.8-0.6-1.2c0.1-0.2,0.1-0.4,0.1-0.5c-1.7-2.5-2.5-4-2.5-4.5c-1.2-2-1.8-3.8-1.8-5.6
			l2.8-5.8C24.6,108.1,24.7,108,24.9,108z"/>
		<path class="st0" d="M46.3,114.8c0.1,0,0.7,0.4,1.5,1.2h0.7c0,0.3,0.1,0.7,0.5,1.2c-0.3,0.9-1.6,3.5-4.1,7.8c0,0.1-0.3,0.8-0.9,2
			h-0.5v-0.5c0-0.2-0.4-1.1-1.2-2.7c0.3-0.7,0.8-2.5,1.3-5.3C44.9,116.4,45.8,115.2,46.3,114.8z M49.9,106.5c0,0.4,0.5,1.3,1.5,2.4
			l-0.1,0.7v0.1c0,0.3,0,0.5,0.1,0.5c0,2.5-0.7,4.2-2.1,5.1c-0.5-0.4-1.3-1-2.4-1.8c0-0.5-0.1-0.8-0.3-0.8l3-6.3L49.9,106.5
			L49.9,106.5L49.9,106.5z"/>
		<path class="st0" d="M74.6,107.4l0.1,0.3c-0.1,0-0.4,0.2-0.7,0.7c0.2,0,0.3,0.1,0.3,0.3c-0.1,0-0.3,0.3-0.8,0.8l0.1,0.3v0.1
			l-0.8,0.9l0.4,0.3c0.5-0.3,0.9-0.4,1.4-0.4v0.1c0,0.3-0.6,0.9-1.8,1.9l0.1,0.3c-1.8,1.9-2.9,3.1-3.4,3.7c0.3,0,0.4,0,0.4,0.1
			c1-0.3,2-0.4,3-0.4h1.1c1,0,1.6,0.7,1.9,2.2c-0.6,1.5-2.6,3.4-6.1,5.7c-1.6,1-5.5,4.6-11.9,10.9c-2.2,1.6-3.6,2.5-4.2,2.7
			l-0.1-0.3c2.8-1.8,4.2-3.4,4.2-4.6c1-0.9,1.7-1.8,1.9-2.7c0.3-0.1,0.6-0.7,0.9-1.6c1-0.7,3.1-2.8,6.5-6.2l2.3-1.6v-0.3l-0.3,0.1
			h-0.8c-1.7,0.4-3.4,0.7-5.3,0.9c-1.1,0-1.8-0.7-2.2-2c0-0.3-0.1-0.5-0.3-0.8c0.2-0.8,1.6-1.9,3.9-3.3
			C70.3,110.3,73.7,107.7,74.6,107.4z"/>
		<path class="st0" d="M99.5,109.1c0.2,0,0.3,0.1,0.3,0.3c-0.2,0-0.3,0.1-0.3,0.3v0.4c0,0.4,0.2,0.7,0.5,1.1
			c-0.1,0.2-0.1,0.3-0.1,0.4l0.5,1.3c-0.4,0.4-0.8,1.8-1.3,4.2c-0.5,1.7-0.9,2.9-1.3,3.5c0.1,0,0.4,0.3,0.7,0.7
			c-0.1,0-0.3,0.4-0.7,1.1v0.3l0.3,0.4v0.3l-1.1,1c-0.1,0-0.2,0-0.4,0.1c-1.7-0.1-3.1-0.1-4.3-0.1h-0.4c-0.4,0-0.9,0-1.6,0.1
			c-0.2-0.1-0.4-0.1-0.5-0.1c-0.3,0.6-0.7,1-1.1,1.3h-0.3c-0.2-0.8-0.7-1.3-1.3-1.3c-0.4,0-0.6-0.1-0.6-0.4l0.1-0.3
			c-0.2-0.3-0.3-0.6-0.3-0.8c0-0.5,2-4.6,5.9-12.3l0.4-0.3c0.2,0,0.3,0.1,0.3,0.3c-0.2,0-0.3,0.1-0.3,0.3v0.4c0,0.3,0.2,0.7,0.6,1.1
			c-0.1,0.2-0.1,0.3-0.1,0.4l0.6,1.3c-0.5,0.5-1,2.4-1.6,5.4c-0.2,0.2-0.4,0.7-0.5,1.5c1.6-0.3,2.4-0.8,2.4-1.7
			c0.1-0.1,1.8-3.4,5-9.9L99.5,109.1z"/>
		<path class="st0" d="M117.9,126.5c-3.1-0.4-5.3-2.4-6.7-6.2c-0.1-0.7-0.1-1.2-0.1-1.6c1.4-6.1,4.4-9.1,9.1-9.1
			c2.3,0,3.8,0.8,4.6,2.5c0.2-0.5,0.3-0.9,0.4-1.4c0.8-1.5,1.6-2.4,2.1-2.6c0,0.1,0,0.1,0.1,0.1l-0.1,0.3c0.2,0.3,0.4,0.8,0.6,1.7
			h0.1c0.3-0.2,0.6-0.3,0.9-0.3v0.6l-0.1,0.8l0.3,0.1c0,0.8-0.9,2.5-2.9,5c-4.7,8.8-7.1,13.3-7.2,13.5h-0.1c0-0.6-0.1-1-0.5-1.3
			v-0.5l0.3-0.5c-0.2-0.3-0.7-0.2-1.5,0.3C117.2,127.7,117.5,127.2,117.9,126.5z M124.5,112.7c-0.3-0.1-0.6-0.4-1-0.6l-0.3,0.1h-0.3
			l-0.5-0.4h-0.1v0.6l0.3,0.4v0.1l-0.1,0.3l-1-0.1h-0.1l-3.3,1.2c-1.6,1.4-2.5,3-2.8,4.8c0,1.4,0.9,2.7,2.8,3.7
			c0.5,0.3,1,0.4,1.6,0.4c0.9-2.1,2.1-4.9,3.5-8.2C123.5,114.2,124.1,113.4,124.5,112.7z"/>
		<path class="st0" d="M148.4,99c0,0.1,0,0.1,0.1,0.1l-0.1,0.3c0.2,0.3,0.4,0.8,0.6,1.7h0.1c0.3-0.2,0.6-0.3,0.9-0.3v0.6l-0.1,0.8
			l0.3,0.1c-0.4,2-1.5,4.7-3.3,8c-0.4,2.1-1.6,4.4-3.6,6.9c-5.4,10.4-8.1,15.6-8.3,15.7h-0.1c0-0.6-0.1-1-0.5-1.3v-0.5l0.3-0.5
			c-0.2-0.3-0.3-0.9-0.5-2c0.9-1.4,2.8-5.8,5.9-13.1c1.3-1.6,2.5-4.5,3.5-8.6c0.5-0.4,1.4-2.2,2.7-5.4
			C147.1,100.1,147.8,99.2,148.4,99z"/>
		<path class="st0" d="M168.9,107.4l0.1,0.3c-0.1,0-0.4,0.2-0.7,0.7c0.2,0,0.3,0.1,0.3,0.3c-0.1,0-0.3,0.3-0.8,0.8l0.1,0.3v0.1
			l-0.8,0.9l0.4,0.3c0.5-0.3,0.9-0.4,1.4-0.4v0.1c0,0.3-0.6,0.9-1.8,1.9l0.1,0.3c-1.8,1.9-2.9,3.1-3.4,3.7c0.3,0,0.4,0,0.4,0.1
			c1-0.3,2-0.4,3-0.4h1.1c1,0,1.6,0.7,1.9,2.2c-0.6,1.5-2.6,3.4-6.1,5.7c-1.6,1-5.5,4.6-11.9,10.9c-2.2,1.6-3.6,2.5-4.2,2.7
			l-0.1-0.3c2.8-1.8,4.2-3.4,4.2-4.6c1-0.9,1.7-1.8,1.9-2.7c0.3-0.1,0.6-0.7,0.9-1.6c1-0.7,3.1-2.8,6.5-6.2l2.3-1.6v-0.3l-0.3,0.1
			h-0.8c-1.7,0.4-3.4,0.7-5.3,0.9c-1.1,0-1.8-0.7-2.2-2c0-0.3-0.1-0.5-0.3-0.8c0.2-0.8,1.6-1.9,3.9-3.3
			C164.5,110.3,167.9,107.7,168.9,107.4z"/>
	</g>
	<g>
		<path d="M16.7,69.6L29,54.3h15.3L26.7,75.8l17.6,21.5H29L16.7,81.9v15.3H4.4v-43h12.3V69.6L16.7,69.6z"/>
		<path d="M96.6,54.3v43H84.3V76.8L72,97.2L59.8,76.9v20.4H47.5v-43h12.3L72,75.8l12.3-21.5H96.6z"/>
		<path d="M112.6,54.3v43h-12.3v-43H112.6z"/>
		<path d="M131,75.8l-14.6-21.5h13.9l7.5,11.2l7.6-11.2h13.9l-14.4,21.6l14.4,21.4h-13.6l-8-11.1l-7.3,11.1h-14L131,75.8z"/>
		<path d="M187.6,54.3l-3.1,12.3h-9.2c-2.5,0-4.7,0.9-6.5,2.7c-1.8,1.8-2.7,4-2.7,6.5s0.9,4.7,2.7,6.5c1.8,1.8,4,2.7,6.5,2.7h12.3
			v12.2h-12.3c-5.9,0-11-2.1-15.2-6.3c-4.2-4.2-6.3-9.3-6.3-15.2s2.1-11,6.3-15.2c4.2-4.2,9.3-6.3,15.2-6.3L187.6,54.3L187.6,54.3z"
			/>
	</g>
</g>
</svg>
