<?xml version="1.0" encoding="UTF-8"?>
<svg id="Layer_1" xmlns="http://www.w3.org/2000/svg" version="1.1" viewBox="0 0 512 512">
  <!-- Generator: Adobe Illustrator 30.1.0, SVG Export Plug-In . SVG Version: 2.1.1 Build 136)  -->
  <defs>
    <style>
      .st0 {
        fill: #fff;
      }
    </style>
  </defs>
  <g>
    <path class="st0" d="M3.03,176.41h36.82l-.14,35.82,33.29-35.82h40.47l-34.15,36.32,34.65,51.95h-42.1l-18.52-30.9-13.6,12.87.14,18.02H3.08v-88.22l-.05-.05Z"/>
    <path class="st0" d="M117.09,176.41h46.26l8.31,25.34,8.45,25.57,8.45-25.57,8.31-25.34h46.26v88.22h-31.26l.14-44.22.14-11.34-3.79,11.34-15.13,44.22h-27.37l-15.13-44.22-3.79-11.34.14,11.34.14,44.22h-30.13v-88.22h.05Z"/>
    <path class="st0" d="M250.85,176.41h36.95v88.22h-36.95v-88.22Z"/>
    <path class="st0" d="M326.83,220l-35.55-43.64h40.7l18.16,23.81,18.16-23.81h39.21l-35.55,43.5,36.54,44.77h-41.11l-18.93-24.98-18.66,24.98h-39.44l36.41-44.63h.05Z"/>
    <path class="st0" d="M472.2,215.07c-2.03-11.2-9.44-16.62-18.39-16.62-11.2,0-18.52,6.91-18.52,22.18s7.32,22.18,18.39,22.18c9.31,0,16.89-5.78,18.66-17.53h36.68c-2.39,25.97-24.21,41.6-56.1,41.6-33.52,0-56.1-17.26-56.1-46.39s22.59-46.39,56.1-46.39c31.4,0,53.3,15.36,56.1,40.97,0,0-36.82,0-36.82,0Z"/>
  </g>
  <g>
    <path class="st0" d="M3.03,314.63h5.87c2.44,12.33,10.43,18.57,24.3,18.57,12.6,0,20.24-4.97,20.24-12.6,0-9.53-12.42-11.25-24.75-13.6-12.42-2.26-24.75-5.24-24.75-17.03,0-9.71,9.17-17.21,25.03-17.21,16.76,0,27.83,8.27,30.45,22.86h-5.69c-2.44-11.88-11.16-18.29-24.75-18.29-11.97,0-19.29,5.15-19.29,12.06,0,8.81,10.8,10.98,22.32,13.15,13.15,2.53,27.19,5.06,27.19,17.57,0,10.53-9.26,17.66-25.93,17.66s-27.65-8-30.27-23.13h.05Z"/>
    <path class="st0" d="M94.42,278.45h-27.1v-4.7h59.94v4.7h-27.1v58.36h-5.78v-58.36h.05Z"/>
    <path class="st0" d="M135.25,310.7v-36.91h5.78v36.82c0,14.41,9.35,22.32,22.86,22.32s22.86-7.91,22.86-22.32v-36.82h5.6v36.91c0,17.03-11.61,27.1-28.64,27.1s-28.46-10.16-28.46-27.1Z"/>
    <path class="st0" d="M200.3,273.75h24.12c19.74,0,33.38,11.52,33.38,31.53s-13.69,31.53-33.38,31.53h-24.12v-63.06ZM206.04,278.54v53.57h18.11c16.67,0,27.83-9.62,27.83-26.83s-11.16-26.74-27.83-26.74h-18.11Z"/>
    <path class="st0" d="M265.76,273.75h5.69v63.02h-5.69v-63.02Z"/>
    <path class="st0" d="M279.4,305.28c0-20.87,14.14-32.61,32.34-32.61s32.34,11.7,32.34,32.61-14.14,32.61-32.34,32.61-32.34-11.61-32.34-32.61ZM338.21,305.28c0-17.3-11.07-27.83-26.47-27.83s-26.47,10.53-26.47,27.83,11.07,27.83,26.47,27.83,26.47-10.53,26.47-27.83Z"/>
  </g>
</svg>