<?xml version="1.0" encoding="utf-8"?>
<!-- Generator: Adobe Illustrator 27.8.1, SVG Export Plug-In . SVG Version: 6.00 Build 0)  -->
<svg version="1.1" id="Layer_1" xmlns="http://www.w3.org/2000/svg" xmlns:xlink="http://www.w3.org/1999/xlink" x="0px" y="0px"
	 viewBox="0 0 512 512" style="enable-background:new 0 0 512 512;" xml:space="preserve">
<style type="text/css">
	.st0{fill:#FF7300;}
</style>
<g>
	<g>
		<path class="st0" d="M67,287.9l0.8,0.4l-0.4,0.8l4.3,6l-0.8,1.2c0.3,1.4,0.4,2.5,0.4,3.2l-0.4,0.8l0.4,0.8
			c-0.2,2.1-0.5,3.2-0.8,3.2l0.4,0.8l-1.2,1.9v0.8c1.8,2.9,2.7,4.8,2.7,6h0.4c0.2-2.6,1.4-5.6,3.6-9.1c2.9-6.5,5-9.9,6.3-9.9h0.8
			c0.7,2,1.4,3.4,2.4,3.9l1.9-0.4c0.8,2.5,1.2,3.9,1.2,4.3c0,1.4-5.6,13-16.5,34.7l-1.2,0.8c-0.6,0-0.8-0.3-0.8-0.8
			c0.6,0,0.8-0.3,0.8-0.8v-1.3c0-1-0.5-2-1.5-3.2c0.3-0.5,0.4-1,0.4-1.3c-4.4-6.7-6.6-10.7-6.6-11.8c-3.2-5.2-4.7-10.2-4.7-15
			l7.5-15.4C66.3,288.2,66.5,287.9,67,287.9z"/>
		<path class="st0" d="M124,305.8c0.4,0,1.7,1.1,3.9,3.2h1.9c0,0.7,0.4,1.7,1.3,3.3c-0.7,2.4-4.3,9.3-10.8,20.8c0,0.3-0.8,2-2.4,5.2
			h-1.3V337c0-0.6-1.1-3-3.2-7.2c0.8-1.9,2-6.5,3.6-14C120.2,310.2,122.5,307,124,305.8z M133.5,283.9c0,1.2,1.3,3.4,3.9,6.4
			l-0.4,1.9v0.4c0,0.8,0.1,1.3,0.4,1.3c0,6.7-1.8,11.3-5.6,13.6c-1.3-1.2-3.4-2.8-6.4-4.8c0-1.3-0.3-2-0.8-2l8-16.8L133.5,283.9
			L133.5,283.9L133.5,283.9z"/>
		<path class="st0" d="M199.3,286.2l0.4,0.7c-0.3,0-1,0.6-1.8,1.8c0.5,0.1,0.7,0.3,0.7,0.7c-0.2,0-0.9,0.8-2.1,2.2l0.4,0.7v0.4
			l-2.2,2.5l1.1,0.8c1.3-0.8,2.5-1.2,3.7-1.2v0.4c0,0.7-1.5,2.3-4.7,5.1l0.4,0.7c-4.8,5-7.8,8.2-9,9.7c0.7,0,1.1,0.1,1.1,0.4
			c2.7-0.7,5.3-1.1,8-1.1h2.9c2.7,0,4.3,1.9,5.1,5.8c-1.5,4-6.9,9.1-16.3,15.2c-4.1,2.7-14.7,12.3-31.7,28.9
			c-5.8,4.3-9.5,6.7-11.2,7.2l-0.4-0.7c7.4-4.8,11.2-8.9,11.2-12.3c2.8-2.3,4.5-4.7,5.1-7.2c0.8-0.4,1.6-1.8,2.5-4.3
			c2.6-1.9,8.4-7.5,17.3-16.5l6.2-4.3v-0.7l-0.8,0.4h-2.1c-4.4,1-9.1,1.8-14.1,2.5c-3,0-4.9-1.8-5.8-5.4c0-0.7-0.2-1.3-0.7-2.2
			c0.6-2.1,4.1-5,10.5-8.7C187.7,294.1,196.7,287,199.3,286.2z"/>
		<path class="st0" d="M265.2,290.7c0.5,0.1,0.8,0.3,0.8,0.8c-0.5,0.1-0.8,0.3-0.8,0.7v1.2c0,1,0.5,1.9,1.4,3
			c-0.2,0.5-0.4,0.9-0.4,1.2l1.4,3.4c-1.1,1.2-2.2,4.8-3.4,11.1c-1.3,4.5-2.3,7.6-3.4,9.2c0.3,0,1,0.7,1.8,1.8c-0.3,0-0.9,1-1.8,3
			v0.7l0.8,1.2v0.8l-3,2.6c-0.3,0-0.6,0.1-1.1,0.4c-4.6-0.2-8.4-0.4-11.4-0.4h-1.2c-1.1,0-2.4,0.1-4.1,0.4c-0.5-0.2-1-0.4-1.4-0.4
			c-0.7,1.6-1.7,2.8-3,3.4h-0.7c-0.6-2.2-1.7-3.4-3.4-3.4c-1,0-1.5-0.4-1.5-1.2l0.4-0.8c-0.5-0.8-0.8-1.5-0.8-2.2
			c0-1.3,5.2-12.2,15.6-32.6l1.1-0.7c0.5,0.1,0.8,0.3,0.8,0.7c-0.5,0.1-0.8,0.4-0.8,0.8v1.2c0,0.9,0.5,1.8,1.5,2.9
			c-0.3,0.5-0.4,0.9-0.4,1.2l1.5,3.4c-1.3,1.3-2.6,6.3-4.1,14.4c-0.6,0.6-1.1,1.9-1.4,4c4.1-0.7,6.3-2.1,6.3-4.4
			c0.4-0.3,4.8-9,13.4-26.3L265.2,290.7z"/>
		<path class="st0" d="M314.1,337.1c-8.2-1-14.1-6.3-17.8-16.4c-0.3-1.7-0.4-3.1-0.4-4.1c3.7-16.2,11.7-24.1,24.1-24.1
			c6.2,0,10.2,2.2,12.1,6.7c0.6-1.3,0.9-2.5,1-3.7c2.2-3.9,4.1-6.3,5.6-6.8c0,0.3,0.1,0.4,0.4,0.4l-0.4,0.8c0.6,0.8,1.2,2.2,1.6,4.4
			h0.4c0.9-0.6,1.6-0.8,2.4-0.8v1.6l-0.4,2l0.8,0.4c0.1,2.1-2.5,6.5-7.8,13.3c-12.4,23.5-18.8,35.4-19.2,35.8h-0.4
			c0-1.5-0.4-2.8-1.3-3.6v-1.3l0.8-1.3c-0.5-0.8-1.8-0.5-4,0.8C312.4,340.3,313.1,339,314.1,337.1z M331.6,300.4
			c-0.7-0.4-1.6-1-2.8-1.6l-0.8,0.4h-0.8l-1.4-1.2h-0.4v1.5l0.8,1.2v0.4l-0.4,0.8l-2.7-0.4h-0.4l-8.7,3.1c-4.1,3.8-6.6,8-7.5,12.8
			c0,3.8,2.5,7.1,7.5,9.8c1.3,0.7,2.6,1,4.2,1.2c2.5-5.6,5.6-12.9,9.2-21.8C329.2,304.3,330.6,302.3,331.6,300.4z"/>
		<path class="st0" d="M395.2,263.9c0,0.3,0.1,0.4,0.4,0.4l-0.4,0.8c0.6,0.8,1.2,2.2,1.6,4.4h0.4c0.9-0.6,1.6-0.8,2.4-0.8v1.6
			l-0.4,2l0.8,0.4c-1.2,5.4-4,12.5-8.8,21.3c-1.2,5.6-4.3,11.6-9.6,18.5c-14.2,27.5-21.6,41.5-22,41.7h-0.4c0-1.5-0.4-2.8-1.3-3.6
			v-1.3l0.8-1.3c-0.5-0.8-0.9-2.5-1.3-5.2c2.3-3.7,7.5-15.3,15.7-34.9c3.5-4.1,6.5-11.8,9.2-22.9c1.3-1,3.7-5.8,7.2-14.4
			C391.8,266.8,393.7,264.5,395.2,263.9z"/>
		<path class="st0" d="M449.6,286.2l0.4,0.7c-0.3,0-1,0.6-1.8,1.8c0.5,0.1,0.7,0.3,0.7,0.7c-0.2,0-0.9,0.8-2.1,2.2l0.4,0.7v0.4
			l-2.2,2.5l1.1,0.8c1.3-0.8,2.5-1.2,3.7-1.2v0.4c0,0.7-1.5,2.3-4.7,5.1l0.4,0.7c-4.8,5-7.8,8.2-8.9,9.7c0.7,0,1.1,0.1,1.1,0.4
			c2.7-0.7,5.3-1.1,8-1.1h2.9c2.7,0,4.3,1.9,5.1,5.8c-1.5,4-6.9,9.1-16.3,15.2c-4.1,2.7-14.7,12.3-31.7,28.9
			c-5.8,4.3-9.5,6.7-11.2,7.2l-0.4-0.7c7.4-4.8,11.2-8.9,11.2-12.3c2.8-2.3,4.5-4.7,5.1-7.2c0.8-0.4,1.6-1.8,2.5-4.3
			c2.6-1.9,8.4-7.5,17.3-16.5l6.2-4.3v-0.7l-0.8,0.4h-2.1c-4.4,1-9.1,1.8-14.1,2.5c-3,0-4.9-1.8-5.8-5.4c0-0.7-0.3-1.3-0.7-2.2
			c0.6-2.1,4.1-5,10.5-8.7C438.1,294.1,447,287,449.6,286.2z"/>
	</g>
	<g>
		<path d="M45.3,185.9l32.6-40.8h40.8l-46.8,57.1l46.8,57.1H77.9l-32.6-40.8v40.7H12.7V145.1h32.6V185.9L45.3,185.9z"/>
		<path d="M257.5,145.1v114.2h-32.6v-54.3l-32.6,54.3l-32.6-54.1v54.1h-32.6V145.1h32.6l32.6,57.1l32.6-57.1H257.5z"/>
		<path d="M300.1,145.1v114.2h-32.6V145.1H300.1z"/>
		<path d="M348.9,202.2L310,145.1H347l19.9,29.7l20.3-29.7h37l-38.3,57.3l38.3,56.8h-36.3l-21.3-29.5l-19.3,29.5h-37.2L348.9,202.2z
			"/>
		<path d="M499.3,145.1l-8.2,32.6h-24.4c-6.7,0-12.5,2.4-17.3,7.2c-4.8,4.8-7.2,10.6-7.2,17.3c0,6.7,2.4,12.5,7.2,17.3
			c4.8,4.8,10.6,7.2,17.3,7.2h32.6v32.5h-32.6c-15.8,0-29.2-5.6-40.4-16.7c-11.2-11.2-16.7-24.6-16.7-40.4s5.6-29.2,16.7-40.4
			c11.2-11.2,24.6-16.7,40.4-16.7L499.3,145.1L499.3,145.1z"/>
	</g>
</g>
</svg>
