<?xml version="1.0" encoding="utf-8"?>
<!-- Generator: Adobe Illustrator 28.0.0, SVG Export Plug-In . SVG Version: 6.00 Build 0)  -->
<svg version="1.1" id="Layer_1" xmlns="http://www.w3.org/2000/svg" xmlns:xlink="http://www.w3.org/1999/xlink" x="0px" y="0px"
	 viewBox="0 0 1080 1080" style="enable-background:new 0 0 1080 1080;" xml:space="preserve">
<g>
	<path d="M585.9,206.8c1.9-1.5,3-2.5,3.3-3c0.4-0.8,0.9-1.1,1.5-1.1c0.6,0,1,0.7,0.9,1.8l-0.1,17.1c-0.1,1-0.2,1.6-0.2,1.8
		c-0.1,0.2-0.3,0.3-0.7,0.3c-0.5,0-1-0.8-1.5-2.2c-1.8-5.3-4.5-9.8-8.1-13.3c-3.6-3.6-7.7-5.5-12.2-5.8c-4-0.3-7.7,0.7-11.2,3.1
		c-3.5,2.3-6.3,5.8-8.5,10.4c-2.2,4.6-3.4,9.6-3.8,15c-0.6,9.2,1.4,16.9,6,23c4.7,6.1,10.2,9.4,16.4,9.8c4.3,0.3,8.3-0.8,12-3.2
		c3.8-2.4,6.7-5.4,8.7-8.8c0.6-0.9,1.1-1.4,1.6-1.4c0.7,0.1,1,0.5,1,1.2c-0.1,0.9-1.4,2.9-4.1,5.9c-2.7,3-6.1,5.4-10.3,7.1
		s-8.5,2.4-13.1,2.1c-5.4-0.4-10.5-2.1-15.2-5.2c-4.7-3.1-8.3-7.2-10.8-12.3c-2.5-5.1-3.5-10.9-3.1-17.4c0.5-6.4,2.2-12.1,5.4-17.1
		c3.1-5,7.3-8.7,12.6-11.2c5.2-2.5,10.5-3.6,15.9-3.2c2.9,0.2,5.8,0.9,8.7,2C579.9,203.2,582.9,204.8,585.9,206.8z"/>
	<path d="M613,206.6l23.3,7.5c1.3,0.4,1.9,0.9,1.7,1.5s-0.8,0.7-1.8,0.5c-2.3-0.5-4.1-0.4-5.5,0.2s-2.7,2.1-4.1,4.5
		c-1.4,2.3-3.4,7.6-6,15.9c-3.2,9.9-5.1,16.8-5.8,20.8c-0.7,4,0.2,7.6,2.5,10.8c2.3,3.2,6,5.7,11.3,7.3c5.5,1.8,9.9,2.1,13.5,0.9
		c3.5-1.2,6.4-3.6,8.5-7.5c2.2-3.8,5.5-12.6,9.9-26.2c2.3-7,3-11.9,2.3-14.5c-0.8-2.7-2.6-4.4-5.4-5.4c-1.1-0.4-1.6-0.9-1.4-1.5
		c0.2-0.6,1.1-0.7,2.6-0.2l18.6,6c0.8,0.3,1.2,0.7,1,1.3c-0.1,0.4-0.6,0.6-1.3,0.5c-2.5-0.4-4.4-0.2-5.9,0.6
		c-1.5,0.8-2.9,2.6-4.2,5.5c-1.3,2.9-2.9,7.3-4.8,13.1c-2.3,7.3-4.6,13.4-6.8,18.3c-2.2,4.9-4.6,8.3-7.2,10.2
		c-2.6,1.9-6,3.1-10.1,3.4s-8.8-0.3-14.1-2c-5.4-1.7-9.7-4.1-12.9-7c-3.2-2.9-5.1-6.1-5.5-9.3c-0.4-3.3,0.3-7.7,2.1-13.4l4.3-12.8
		c3.7-11.4,5.5-18.6,5.3-21.5c-0.2-2.9-1.8-4.9-5-6c-1.1-0.3-1.5-0.8-1.3-1.3C610.9,206.3,611.7,206.2,613,206.6z"/>
	<path d="M721.3,256.6c1.2-0.3,2.2-0.8,2.9-1.5c0.6-0.5,1.1-0.7,1.6-0.4c0.2,0.1,0.4,0.4,0.5,0.9c-0.4,1.1-1.3,3.3-2.7,6.6l-3.6,8.5
		c-0.3,0.5-0.8,0.6-1.4,0.2c-0.3-0.2-0.5-0.7-0.4-1.4c0.7-4.6,0.3-8.9-1.2-13.1c-1.5-4.1-4-7.2-7.4-9.2c-3.4-2-6.6-2.5-9.5-1.4
		c-2.9,1-5.1,2.7-6.4,5c-1.7,2.8-2,5.5-1,8.1c1,2.6,3.9,6.6,8.6,11.9c3.5,3.9,6,7.1,7.4,9.6s2.2,5.4,2.3,8.5c0.1,3.1-0.6,6-2.1,8.6
		c-2.6,4.4-6.8,7.3-12.5,8.7c-5.7,1.3-11.3,0.4-16.6-2.7c-4.8-2.8-8.7-7.2-11.8-13c-1.4,0.2-2.6,0.8-3.5,1.7c-0.8,0.8-1.4,1-1.9,0.7
		c-0.4-0.3-0.4-1,0-2.3c0.5-1.3,3.3-6.9,8.4-17c0.3-0.3,0.7-0.3,1.2,0c0.4,0.2,0.6,0.8,0.5,1.5c-2.1,13.4,0.8,22.4,8.5,26.9
		c3.8,2.3,7.5,2.9,11.1,1.8c3.5-1,6.2-3.1,8-6.1c1.2-2.1,1.8-4.3,1.6-6.8s-0.9-4.7-2.2-6.9c-1.3-2.2-3.6-5.2-7-8.9
		c-4.3-4.8-7-8.6-8-11.3c-1-2.7-1.4-5.2-1.2-7.7c0.2-2.4,0.9-4.6,1.9-6.4c2.2-3.7,5.8-6,10.9-6.9c5.1-0.9,10.1,0.1,15,3
		c1.9,1.1,3.6,2.5,5.3,4.3C718.2,251.9,719.8,254.1,721.3,256.6z"/>
	<path d="M764.1,288.3c-1.8-1.8-3.1-3.1-3.8-3.8c-5.2-4.8-9.9-7.1-14.2-7.1c-4.3,0-7.4,0.7-9.4,2c-0.7,0.5-1.3,0.5-1.8,0
		c-0.2-0.2-0.4-0.5-0.4-1c2.7-2.7,6.8-6.2,12-10.3c1.2,1,1.9,1.7,2.2,2c1.9,1.7,4.3,4.1,7.2,7.2c3.2,3.3,8.3,8.2,15.3,14.6
		c7.1,6.6,11.9,10.8,14.2,12.6c2.1,1.6,4.9,4,8.4,7.1c-1.3,2-2.8,4-4.4,5.9c-1.8,2.3-3,3.9-3.7,4.9c-0.2,0.2-0.3,0.4-0.5,0.6
		c-0.5,0.6-1,0.6-1.5,0.2c-0.3-0.3-0.5-0.6-0.5-1c0-0.4,0.1-1.5,0.5-3.3c0.5-3.1,0.6-5.7,0.2-8c-0.4-2.2-1.3-4.2-2.7-6.1
		c-1.4-1.8-4.6-5.1-9.5-9.8c-3.6,3.4-7.6,7.4-11.8,12c-14.1,15.4-22.2,24.8-24,28.1c-1.9,3.4-0.8,6.9,3.3,10.6c1,0.9,1.3,1.6,0.9,2
		c-0.4,0.5-1.1,0.3-2.1-0.6L715.7,327c-0.6-0.5-0.7-1-0.2-1.5c0.4-0.5,1.2-0.2,2.3,0.9c1.9,1.7,3.9,2.6,6.1,2.6c2.1,0,4.1-0.8,6-2.5
		c1.9-1.7,6.8-6.8,14.8-15.5C751.5,303.6,757.9,296,764.1,288.3z"/>
	<path d="M779.3,343.3c3.7-2.4,8.4-4,14.3-4.7c5.9-0.7,11.6,0.2,17.3,2.6c5.7,2.4,10.3,6.3,13.9,11.6c5,7.5,6.4,15.5,4.3,24
		s-6.6,15-13.5,19.5c-7.3,4.9-15.7,6.5-25.1,4.9c-9.4-1.6-16.7-6.2-21.7-13.8c-4.8-7.3-6.3-15.1-4.5-23.4
		C765.9,355.7,771,348.7,779.3,343.3z M786.6,351.5c-4.4,2.9-8.5,6.6-12.3,11.1c-3.8,4.4-5.7,8.8-5.9,13.1c-0.2,4.3,0.8,8.1,3,11.4
		c3.5,5.3,9,7.9,16.3,7.7c7.3-0.2,14.4-2.6,21.3-7.2c6.6-4.4,11.4-9.9,14.2-16.5c2.8-6.6,2.5-12.5-1-17.8c-2.6-4-6.2-6.4-10.6-7.3
		c-4.4-0.9-8.9-0.7-13.4,0.5S789.8,349.4,786.6,351.5z"/>
	<path d="M857.6,417.4c-5.8,5.3-11,10-15.3,14.4c-5.2,5.2-9.7,9.4-13.2,12.5c-3.6,3.1-7,6.5-10.3,10.2c12.7,3.1,30.3,5.9,52.9,8.2
		l5.7,18.6c0.1,0.7-0.1,1.1-0.6,1.2c-0.5,0.1-0.9-0.1-1.2-0.9c-1.3-3.2-2.6-5.2-4-6c-1.4-0.8-3.3-0.9-5.9-0.4
		c-2.5,0.5-7.2,1.7-14,3.5c-6.8,1.8-12.4,3.4-16.8,4.8c-8.6,2.7-13.5,4.3-14.9,4.8c-1.4,0.6-2.3,1.4-2.9,2.6c-0.6,1.2-0.6,3.2-0.1,6
		c0.1,0.8-0.1,1.3-0.5,1.4c-0.5,0.1-0.8-0.3-1.1-1.2l-5.6-18.2l-1.5-4.8c-0.3-1.1-0.2-1.7,0.3-1.8c0.4-0.1,0.8,0.1,1.1,0.8
		c1.2,2.5,2.2,4.1,3.1,4.8c0.9,0.7,2.2,1,3.9,0.9c1.7-0.1,5.8-1.1,12.2-3.1l22.7-6.1l11.2-3c0.8-0.3,1.2-0.5,1.1-0.8
		c-0.1-0.4-0.5-0.6-1-0.7l-21.1-3.6c-13.5-2.3-22.1-3.6-25.8-3.9L808,457c-2.4-0.2-3.8-0.4-4-0.5c-0.3-0.1-0.4-0.3-0.5-0.6
		c-0.1-0.4,0.2-0.8,0.9-1.3c1.8-1.2,7-5.9,15.7-14.3c5-4.5,10.6-9.8,16.9-15.9c6.3-6.1,9.6-9.4,9.8-9.8c0.2-0.4,0.3-0.7,0.3-0.9
		c-0.1-0.3-0.5-0.3-1.3-0.1l-28.4,8.2l-9.4,2.8c-4.9,1.5-8,3.2-9.1,5c-1.1,1.8-1.3,4-0.5,6.5c0.5,1.6,0.4,2.5-0.3,2.7
		c-0.5,0.2-0.9-0.2-1.1-0.9l-0.3-1l-1-3l-2-6.6c-0.9-2.9-2.2-6.5-3.9-10.9c0.1-0.5,0.3-0.7,0.6-0.8c0.6-0.2,1.1,0.2,1.5,1.3
		c1.1,3.1,2.8,5,5.2,5.9c2.4,0.9,7,0.2,13.8-1.9l8.2-2.6l21-5.8c4.9-1.5,8-3.2,9.3-5.2c1.3-2,1.8-4.4,1.2-7.3
		c-0.2-1.2-0.1-1.9,0.4-2.1c0.5-0.2,1,0.2,1.2,1.1c0.1,0.5,0.3,1,0.5,1.7L857.6,417.4z"/>
	<path d="M878.2,501.6l0.5,8.9l1.2,13.6c0.1,1.6-0.1,2.5-0.8,2.5c-0.5,0-0.8-0.4-1-1.2c-0.7-3.6-2.2-5.7-4.4-6.4
		c-2.2-0.7-10.2-0.6-23.9,0.5c-5,0.4-10.7,1-17,1.7c-6.3,0.7-10,1.3-11.2,1.7c-1.2,0.4-2.2,1.1-2.9,2.1c-0.7,1-1.1,2.7-1.3,5.2
		c0,0.8-0.3,1.2-0.8,1.3c-0.6,0-0.9-0.3-1-1.1l-0.8-12.1l-0.9-10.3c-0.1-1.1,0.2-1.7,0.8-1.8c0.7-0.1,1.1,0.4,1.1,1.3
		c0.3,3,1.4,4.7,3.4,5.1c2,0.4,8.2,0.1,18.7-0.7c10.1-0.8,18.3-1.5,24.6-2.2c6.2-0.7,10-1.5,11.4-2.5c1.3-1,2.1-2.7,2.2-5.2
		c0.1-0.9,0.4-1.4,1-1.4S878.1,500.9,878.2,501.6z"/>
	<path d="M812.5,589.6l0-2.1c2.8-29.6,4.2-44.8,4.2-45.6c0.1-1.2,0.2-1.9,0.3-2.2s0.3-0.3,0.6-0.3c0.3,0.1,1.7,1.1,4.2,2.8
		c2.4,1.8,6.8,5.3,13.2,10.5l17.5,14.4c5.3,4.4,8.9,7.4,10.7,9c5.3,4.8,9,7.7,11.1,8.7c0.8-5.7,1.3-10.2,1.7-13.4
		c0.5-4.9,0.4-8.5-0.1-10.9c-0.5-2.4-1.4-4.5-2.7-6.2c-1.3-1.7-3.5-3.8-6.6-6.4c-1.5-1.3-2.3-2.1-2.2-2.4c0-0.5,0.4-0.8,0.9-0.7
		c0.2,0,2.5,0.9,6.9,2.8c4.5,1.8,7,2.9,7.6,3.3c0.6,0.4,0.9,0.7,0.9,0.9l-1.2,7.2c-0.4,2.6-0.9,7.9-1.7,15.8
		c-1,11.1-1.5,18.1-1.4,21.1c0,0.3,0,0.6,0,0.7c0,0.4-0.3,0.6-0.7,0.5c-1-0.1-9.4-6.9-25.4-20.5c-14.5-12.3-25.2-20.8-32.1-25.6
		c-0.6,4.6-1.1,8.6-1.4,11.9c-0.4,4.6-0.5,8.2-0.4,10.8c0.2,2.6,0.7,5.1,1.5,7.2c0.8,2.2,1.6,3.8,2.4,4.9s2.5,2.9,5,5.4
		c2.3,2.3,3.4,3.6,3.4,3.9c0,0.5-0.4,0.7-1.2,0.7L812.5,589.6z"/>
	<path d="M855.2,667.2c-3.8-0.2-8.9-0.9-15.4-2.1c-0.2-0.2-0.3-0.4-0.2-0.6c0.1-0.2,0.3-0.4,0.6-0.6c4.1-1,7.4-2.2,9.8-3.6
		c2.4-1.4,4.3-2.9,5.7-4.6c1.4-1.7,2.9-5,4.5-9.8c1.5-4.5,2.4-8.2,2.7-11c-0.2-0.3-0.8-0.7-1.6-0.9c-0.2-0.1-0.6-0.2-1.1-0.5
		c-2.4-1.1-9-3.5-20-7c-0.5-0.2-1.1-0.3-2-0.5c-0.9,2.3-1.4,3.9-1.7,4.8c-1.3,3.9-1.6,6.9-1,9c0.6,2.1,2.6,4.5,6,7
		c0.6,0.4,0.8,0.8,0.7,1.2c-0.2,0.6-0.7,0.7-1.6,0.4l-1.8-0.8c-2.4-1-4.9-2-7.5-2.8c-4.2-1.4-8-2.5-11.5-3.5
		c-1.1-0.3-1.5-0.8-1.3-1.4c0.1-0.4,0.6-0.6,1.4-0.5c3.9,0.5,6.9,0,9.2-1.5c2.3-1.6,4.6-5.8,6.8-12.8c-2.2-0.8-5.9-2.1-10.9-3.7
		c-6.5-2.1-10.8-3.3-12.7-3.4s-3.7,0.5-5.3,2s-3.1,4.2-4.5,8.5c-3.9,12-2.3,21.2,4.8,27.4c0.9,0.8,1.2,1.4,1.1,1.8
		c-0.2,0.5-0.6,0.6-1.3,0.4c-0.4-0.1-0.7-0.3-1.1-0.6c-0.5-0.4-2.6-1.5-6.2-3.5c-0.8-0.4-3-1.8-6.7-4.1l6.4-19.4
		c0.9-2.8,2.4-6.8,4.4-12.2c2-5.3,3.7-10.1,5.1-14.2c1.4-4.2,2.2-6.3,2.4-6.4c0.2-0.1,0.4-0.2,0.6-0.1c0.6,0.2,0.8,0.8,0.4,1.8
		c-1.1,3.4-0.9,6,0.5,7.7c1.5,1.7,5.7,3.7,12.8,6l9.5,3.1l8.9,3c1.8,0.6,5.2,1.6,10.3,3c5.1,1.4,8,2.2,8.7,2.2
		c0.8,0.1,1.6-0.2,2.6-0.8c1-0.6,2.2-2.1,3.8-4.5c0.5-0.7,1-1,1.4-0.9c0.6,0.2,0.7,0.8,0.3,1.9l-3.6,9.3c-1.2,3.3-4,11.5-8.3,24.6
		C856.8,662.6,855.3,667,855.2,667.2z"/>
	<path d="M836,707.3l-5.2,8.6c-6.8,10.8-14.5,17.3-23.2,19.5c-8.7,2.2-17,0.9-25-4.1c-5.7-3.5-9.7-7.9-12.3-13.2
		c-2.5-5.3-3.6-10.5-3.2-15.9c0.4-5.3,2.6-11.3,6.8-17.9c0.9-1.5,2.2-3.3,3.8-5.5c2.9-3.9,4.5-6.1,4.8-6.6
		c5.7-9.1,8.9-14.4,9.7-16.2c0.6-0.9,1.1-1.2,1.5-0.9c0.3,0.2,0.4,0.5,0.3,0.9s-0.6,1.5-1.4,3.4c-1.1,2.4-1.2,4.5-0.3,6.3
		s5.1,5.2,12.6,10.2l21.5,14.4c2.5,1.6,5.1,3,7.7,4.1s4.4,1.5,5.6,1.2c1.1-0.3,2.3-1.2,3.6-2.6c0.9-1.1,1.6-1.4,2-1.1
		c0.6,0.4,0.7,0.8,0.3,1.4c-0.3,0.6-1.5,2.2-3.5,4.9C840.1,700.9,838.1,703.9,836,707.3z M796.9,680.8c-3.6-2.3-6.4-3.7-8.3-4.2
		c-1.9-0.5-3.8-0.3-5.8,0.7c-2,1-4.1,3.2-6.3,6.7c-3.1,5-4.5,9.8-4.1,14.4c0.4,4.6,2.1,9,4.9,13.2c2.8,4.2,6.5,7.7,10.9,10.5
		c6.6,4.1,13.8,5.8,21.6,5.2c7.8-0.7,14.4-5.2,19.7-13.7c2.3-3.8,3.6-6,3.7-6.8c0.1-0.8-0.4-1.5-1.6-2.3c-1.1-0.7-2.9-2-5.6-3.9
		c-3.9-2.8-6.9-4.9-9.1-6.4l-11.1-7.5C800.7,683.3,797.7,681.3,796.9,680.8z"/>
	<path d="M646.8,793.1l2.6-1.1c3.3,3.9,8.2,9.1,14.6,15.6l17.9,18.2c5.5,5.6,9.2,9.1,10.9,10.3c1.8,1.2,3.2,1.9,4.5,2.1
		c1.2,0.2,2.8,0,4.7-0.7c0.8-0.3,1.3-0.2,1.5,0.3c0.2,0.6,0,1-0.8,1.3l-23.5,10.1c-1.5,0.6-2.3,0.7-2.5,0.2c-0.3-0.7,0.1-1.2,1-1.6
		c3.9-1.7,5.2-4.2,3.7-7.6c-0.3-0.8-1.1-2-2.2-3.6c-1.1-1.6-2.7-3.5-4.7-5.7c-2-2.2-6.2-6.6-12.5-13.4c-6.3-6.7-10.3-10.8-11.9-12.3
		l1.8,30.7c0.5,8.7,1.1,14,2,16c1.3,3.1,4,4,8.1,2.7c0.8-0.3,1.3-0.2,1.5,0.4c0.1,0.3,0.1,0.6-0.1,0.8c-0.2,0.2-1,0.6-2.4,1.2
		l-15,6.4c-1.3,0.6-2.2,0.9-2.5,0.9c-0.3,0-0.6-0.1-0.7-0.5c-0.2-0.5,0.2-1.1,1.3-1.8c2.1-1.3,3.4-2.8,4-4.6c0.6-1.8,1-3.8,1.2-6.1
		c0.3-2.3-0.1-10.6-1-25.2C648,821.3,647.5,810.2,646.8,793.1z"/>
	<path d="M627.6,868.9l-8.7,1.8l-13.3,3.2c-1.6,0.4-2.5,0.2-2.6-0.4c-0.1-0.5,0.2-0.9,1.1-1.2c3.4-1.2,5.3-3,5.7-5.3
		c0.4-2.3-0.9-10.1-4-23.5c-1.1-4.9-2.5-10.4-4.2-16.5c-1.7-6.1-2.8-9.7-3.4-10.8c-0.6-1.1-1.4-2-2.5-2.5c-1.1-0.6-2.8-0.7-5.3-0.5
		c-0.8,0.1-1.3-0.1-1.4-0.6c-0.1-0.6,0.2-0.9,0.9-1.1l11.9-2.6l10-2.4c1.1-0.3,1.7-0.1,1.9,0.6c0.2,0.7-0.2,1.1-1.1,1.3
		c-2.9,0.7-4.4,2.1-4.5,4.1c-0.1,2,1.1,8.2,3.4,18.4c2.3,9.9,4.2,17.9,5.7,24c1.6,6.1,2.9,9.7,4.1,10.9c1.2,1.2,3,1.7,5.4,1.5
		c0.9,0,1.5,0.2,1.6,0.8C628.5,868.4,628.2,868.8,627.6,868.9z"/>
	<path d="M565.4,879l-10,0.5c-12.7,0.4-22.4-2.4-29.1-8.4c-6.7-6-10.2-13.7-10.5-23.1c-0.2-6.7,1.2-12.5,4.2-17.5
		c3-5,6.8-8.9,11.4-11.5c4.6-2.6,10.8-4.1,18.6-4.3c1.8-0.1,4,0,6.7,0.1c4.8,0.2,7.5,0.4,8.1,0.3c10.7-0.3,16.9-0.6,18.8-0.9
		c1.1,0,1.6,0.2,1.6,0.8c0,0.4-0.2,0.6-0.6,0.8c-0.4,0.1-1.6,0.4-3.6,0.7c-2.6,0.4-4.4,1.5-5.4,3.3c-1,1.8-1.5,7.2-1.5,16.2l0,25.9
		c0.1,3,0.4,5.9,0.9,8.7c0.5,2.8,1.2,4.5,2.1,5.3c0.9,0.8,2.3,1.3,4.2,1.5c1.4,0.2,2.1,0.5,2.1,1.1c0,0.7-0.3,1-1,1.1
		c-0.7,0-2.6-0.1-6-0.2C573.1,878.9,569.4,878.9,565.4,879z M565.7,831.8c-0.1-4.3-0.5-7.4-1.1-9.2c-0.6-1.8-1.9-3.3-3.8-4.4
		c-1.9-1.1-4.9-1.6-9.1-1.5c-5.9,0.2-10.7,1.7-14.3,4.6c-3.6,2.9-6.3,6.7-8.3,11.4c-1.9,4.7-2.8,9.7-2.6,14.9
		c0.2,7.7,2.8,14.7,7.7,20.8c4.9,6.1,12.3,9.1,22.3,8.8c4.4-0.1,7-0.4,7.7-0.7s1.1-1.2,1-2.6c0-1.3,0-3.5,0.1-6.8
		c0.2-4.8,0.3-8.5,0.3-11.1l0-13.4C565.7,836.3,565.7,832.7,565.7,831.8z"/>
	<path d="M446.4,866.8c-0.2-3.8,0-9,0.5-15.6c0.2-0.2,0.4-0.3,0.6-0.3c0.2,0,0.4,0.2,0.6,0.5c1.4,4,3,7.1,4.6,9.4s3.3,4,5.2,5.2
		c1.9,1.2,5.3,2.3,10.2,3.4c4.7,1,8.4,1.5,11.2,1.5c0.3-0.3,0.6-0.8,0.8-1.7c0-0.2,0.2-0.6,0.4-1.2c0.9-2.5,2.5-9.3,4.9-20.6
		c0.1-0.5,0.2-1.2,0.3-2c-2.4-0.6-4-1-4.9-1.2c-4-0.9-7-0.9-9.1-0.1c-2.1,0.8-4.2,3.1-6.4,6.7c-0.4,0.6-0.8,0.9-1.2,0.8
		c-0.6-0.1-0.8-0.7-0.6-1.6l0.6-1.9c0.8-2.5,1.5-5,2-7.7c0.9-4.3,1.7-8.3,2.3-11.8c0.2-1.1,0.6-1.6,1.2-1.4c0.4,0.1,0.6,0.5,0.6,1.3
		c-0.1,3.9,0.7,6.9,2.5,9c1.8,2.1,6.3,3.9,13.4,5.5c0.6-2.3,1.4-6,2.6-11.2c1.4-6.7,2.1-11,2-13c-0.1-1.9-0.9-3.6-2.5-5.1
		c-1.6-1.5-4.5-2.6-8.9-3.6c-12.4-2.6-21.3-0.1-26.7,7.7c-0.7,1-1.2,1.4-1.7,1.3c-0.5-0.1-0.7-0.5-0.5-1.2c0.1-0.4,0.2-0.8,0.5-1.2
		c0.3-0.6,1.3-2.7,2.8-6.5c0.3-0.8,1.5-3.1,3.4-7.1l20,4.3c2.9,0.6,7,1.6,12.6,3.1c5.5,1.4,10.4,2.6,14.7,3.5
		c4.3,0.9,6.5,1.5,6.7,1.7c0.2,0.2,0.2,0.4,0.2,0.6c-0.1,0.6-0.7,0.8-1.8,0.6c-3.5-0.8-6.1-0.3-7.6,1.3c-1.5,1.6-3,6.1-4.6,13.3
		l-2,9.8l-2.1,9.1c-0.4,1.8-1,5.4-1.9,10.5c-0.9,5.2-1.3,8.2-1.3,8.9c0,0.8,0.4,1.6,1,2.5c0.7,0.9,2.3,2,4.9,3.3
		c0.8,0.4,1.1,0.8,1,1.3c-0.1,0.6-0.7,0.7-1.9,0.5l-9.6-2.6c-3.4-0.9-11.8-2.8-25.3-5.7C451.1,867.8,446.6,866.8,446.4,866.8z"/>
	<path d="M435.3,831.6c-1.9,4-5.2,7.7-9.9,11.3c-4.7,3.6-10.1,5.8-16.2,6.6s-12.1-0.1-17.9-2.9c-8.1-3.9-13.4-10.1-15.9-18.4
		c-2.5-8.4-1.9-16.3,1.6-23.7c3.8-7.9,10.2-13.6,19.1-17.1c8.9-3.5,17.5-3.2,25.7,0.8c7.9,3.8,13.2,9.8,15.9,17.8
		C440.4,814.2,439.6,822.7,435.3,831.6z M424.8,828.3c2.3-4.8,3.9-10,4.9-15.8s0.4-10.5-1.6-14.3c-2-3.8-4.8-6.5-8.4-8.3
		c-5.8-2.8-11.7-2.2-17.9,1.7c-6.2,3.9-11.1,9.6-14.6,17c-3.5,7.2-4.7,14.3-3.8,21.4c0.9,7.1,4.3,12.1,10,14.8
		c4.3,2.1,8.6,2.4,12.9,0.9c4.3-1.5,8-4,11.3-7.3C420.7,835.1,423.1,831.7,424.8,828.3z"/>
	<path d="M242.2,696.4c-2.3-0.7-3.7-1-4.4-0.9c-0.8,0.1-1.4-0.1-1.7-0.6c-0.3-0.6,0-1.2,0.9-1.8l14-9.8c0.8-0.5,1.4-0.8,1.6-0.8
		c0.2,0,0.4,0.1,0.6,0.4c0.3,0.4,0,1.3-0.9,2.5c-3.3,4.5-5.4,9.3-6.2,14.3c-0.8,5,0,9.5,2.4,13.3c2.1,3.4,5.1,5.8,9,7.3
		c3.9,1.5,8.4,1.8,13.4,0.9c5-0.9,9.8-2.8,14.5-5.6c7.9-4.8,13-10.9,15.2-18.3c2.3-7.4,1.8-13.7-1.5-19.1c-2.2-3.6-5.4-6.3-9.6-7.9
		c-4.2-1.6-8.3-2.3-12.2-2c-1.1,0.1-1.8-0.1-2-0.5c-0.4-0.6-0.2-1.1,0.4-1.5c0.8-0.5,3.2-0.5,7.2-0.1c4,0.4,7.9,1.9,11.7,4.2
		c3.8,2.4,6.9,5.6,9.3,9.5c2.8,4.6,4.4,9.8,4.6,15.4c0.2,5.6-1,10.9-3.7,15.9c-2.7,5-6.8,9.2-12.4,12.6c-5.5,3.4-11.2,5.2-17,5.5
		c-5.9,0.3-11.3-0.9-16.4-3.7c-5.1-2.8-9-6.5-11.8-11.1c-1.5-2.4-2.6-5.2-3.5-8.2C242.7,703.3,242.3,700,242.2,696.4z"/>
	<path d="M245.3,631.5c0.4-4.9,1.4-8.5,2.8-10.9c1.5-2.4,4.2-4.6,8.1-6.8c5.2-2.9,8.5-5.6,9.8-8.1c1.3-2.5,1.5-5.2,0.6-8.3
		c-0.2-0.9-0.1-1.4,0.5-1.5c0.5-0.2,1,0.2,1.3,1.2c2.9,8.6,4.4,14,4.4,16c0,2-2.7,4.4-8.1,7.3c-5.3,2.7-9.1,4.9-11.4,6.7
		c-2.3,1.8-3.8,3.9-4.5,6.3c-0.7,2.5-0.4,5.8,1.1,10c0.5,1.6,1.3,3.4,2.3,5.3c2-0.5,4-1.1,6.1-1.8c7.9-2.6,13-4.5,15.3-5.5
		c2.3-1,3.7-2.2,4.4-3.7c0.7-1.5,0.6-3.5-0.1-6.1c-0.3-1.1-0.3-1.8,0.3-1.9c0.6-0.2,1.1,0.4,1.6,1.7l7.7,22.9
		c0.4,1.3,0.4,2.1-0.2,2.3c-0.5,0.2-1-0.3-1.3-1.3c-0.8-2.3-1.7-3.9-2.7-4.5c-1-0.7-2.4-1-4-1c-1.7,0-4.5,0.6-8.4,1.9l-9.4,3.2
		l-14.4,4.8c-7.3,2.5-12.1,4.2-14.4,5.4c-2.3,1.1-3.7,2.2-4.2,3.3c-0.5,1.1-0.5,3.2,0,6.4c0.1,0.7,0,1.1-0.5,1.2
		c-0.5,0.2-1-0.4-1.4-1.7l-9.8-27.2c-2.5-7.6-2.9-13.5-1.2-17.9c1.8-4.4,4.7-7.3,8.9-8.7c2.7-0.9,5.3-1,8-0.4
		c2.6,0.6,4.8,1.7,6.4,3.3C240.5,625.1,242.6,627.7,245.3,631.5z M249.9,649.4c-2.1-5.9-4-10.2-5.7-12.9c-1.7-2.7-4.1-4.7-7.2-6
		c-3.1-1.3-6.3-1.4-9.6-0.3c-3.5,1.2-6.1,3.3-8,6.5c-1.8,3.2-1.9,7.3-0.2,12.4c0.9,2.8,2.3,5.7,4.2,8.8c8.6-2.5,15.4-4.5,20.5-6.2
		C245.7,651.2,247.7,650.4,249.9,649.4z"/>
	<path d="M200.3,549.1c3.5-1.3,8.5-2.7,15-4.2c0.3,0.1,0.4,0.3,0.4,0.5c0,0.2-0.1,0.5-0.3,0.8c-3.4,2.6-5.9,5-7.6,7.2
		c-1.7,2.2-2.8,4.4-3.4,6.5c-0.6,2.1-0.7,5.7-0.2,10.7c0.4,4.7,1.1,8.5,1.9,11.2c0.3,0.2,1,0.3,1.8,0.2c0.2,0,0.6,0,1.2,0
		c2.6,0.1,9.7-0.4,21.1-1.5c0.5,0,1.2-0.1,2-0.3c-0.1-2.5-0.2-4.2-0.3-5.1c-0.4-4.1-1.3-7-2.7-8.7c-1.4-1.7-4.2-3.1-8.3-4.1
		c-0.7-0.2-1.1-0.5-1.1-0.9c-0.1-0.6,0.4-1,1.3-1l2,0c2.6,0,5.2-0.1,8-0.4c4.4-0.4,8.4-0.9,11.9-1.4c1.1-0.1,1.7,0.1,1.7,0.7
		c0,0.4-0.3,0.8-1.1,1c-3.8,1-6.4,2.7-7.9,5.1c-1.5,2.3-1.9,7.1-1.2,14.4c2.4-0.1,6.2-0.4,11.5-0.9c6.8-0.6,11.2-1.3,13-1.9
		s3.2-2,4.1-3.9c0.9-2,1.2-5.1,0.7-9.5c-1.2-12.6-6.3-20.3-15.3-23.2c-1.1-0.3-1.7-0.8-1.7-1.2c0-0.5,0.3-0.8,1-0.9
		c0.4,0,0.8,0,1.3,0.1c0.6,0.1,3,0.4,7,0.8c0.9,0.1,3.4,0.5,7.8,1.1l1.9,20.4c0.3,2.9,0.6,7.2,0.8,12.9c0.3,5.7,0.6,10.7,1,15.1
		c0.4,4.4,0.5,6.6,0.4,6.9c-0.1,0.2-0.3,0.3-0.5,0.3c-0.6,0.1-1-0.4-1.1-1.5c-0.3-3.6-1.5-5.9-3.5-6.8c-2-1-6.7-1.1-14.1-0.4l-10,1
		l-9.3,0.7c-1.9,0.2-5.4,0.6-10.6,1.3c-5.2,0.7-8.2,1.2-8.9,1.4c-0.7,0.2-1.4,0.8-2.1,1.7c-0.7,0.9-1.2,2.8-1.7,5.7
		c-0.1,0.9-0.5,1.3-1,1.4c-0.6,0.1-0.9-0.5-1-1.6l-0.4-10c-0.2-3.5-0.9-12.1-2.2-25.8C200.7,553.9,200.3,549.3,200.3,549.1z"/>
	<path d="M201.9,496.2l0.3-2.2c7.9-2.6,21.2-5.9,39.9-9.8c12-2.5,19.4-4.4,22.2-5.6c2.8-1.2,4.6-3.4,5.3-6.7
		c0.2-1.1,0.7-1.5,1.3-1.5c0.5,0.1,0.6,0.4,0.6,0.9l-0.1,0.7c-0.7,2.9-1.3,6.7-1.9,11.3c-1,7-1.4,11.6-1.5,13.6
		c-0.1,1-0.5,1.5-1.1,1.4c-0.4-0.1-0.6-0.5-0.6-1.2c0.1-2.8-0.1-4.7-0.6-5.9c-0.5-1.1-1.5-1.8-3-2c-1.4-0.2-5,0.3-10.8,1.5l-8.7,1.7
		c-0.2,1.7-1.1,9.2-2.8,22.5c8.5,4.6,13.9,7,16.2,7.3c2,0.3,3.6-0.4,4.7-1.9c1.2-1.5,1.9-3.1,2.2-4.7c0.3-1.2,0.7-1.7,1.3-1.6
		c0.3,0,0.5,0.3,0.6,0.7c-0.9,5.1-1.5,8.2-1.6,9.3c-0.7,5.4-1.2,9.1-1.3,11c-0.1,1-0.5,1.5-1.1,1.4c-0.5-0.1-0.8-0.6-0.8-1.5
		c0-3.8-2.1-7-6.4-9.5c-4.3-2.6-12-6.8-23.3-12.5C220.8,507.6,211.1,502.1,201.9,496.2z M212.2,499.6c5.7,3.8,14.2,8.5,25.3,14.1
		c0.3-3.3,0.5-5.7,0.7-7.2l2.1-13.6c-3.5,0.7-8.2,1.8-14,3.2C219.3,497.9,214.6,499,212.2,499.6z"/>
	<path d="M221.5,429.6c-1,2.3-1.7,4-2,5c-2.4,6.6-2.8,11.9-1.1,15.9c1.7,4,3.5,6.6,5.5,7.9c0.7,0.4,0.9,1,0.7,1.6
		c-0.1,0.3-0.4,0.5-0.8,0.7c-3.6-1.5-8.3-3.9-14.1-7.2c0.5-1.5,0.8-2.4,1-2.8c0.9-2.4,2.2-5.5,3.9-9.5c1.8-4.2,4.3-10.8,7.6-19.7
		c3.3-9.1,5.4-15.1,6.2-17.9c0.7-2.6,1.8-6.1,3.4-10.5c2.3,0.4,4.7,1,7.1,1.8c2.8,0.8,4.8,1.3,5.9,1.5c0.3,0.1,0.5,0.1,0.8,0.2
		c0.7,0.3,1,0.7,0.8,1.4c-0.1,0.4-0.4,0.7-0.7,0.8c-0.4,0.2-1.4,0.4-3.2,0.8c-3.1,0.7-5.5,1.7-7.4,2.9c-1.9,1.3-3.4,2.9-4.5,4.8
		c-1.1,2-2.9,6.2-5.4,12.5c4.5,2.1,9.7,4.2,15.6,6.3c19.6,7.2,31.4,11,35.2,11.4c3.8,0.4,6.7-1.9,8.6-7.1c0.5-1.3,0.9-1.8,1.5-1.6
		c0.6,0.2,0.7,0.9,0.3,2.1l-10.3,28.2c-0.3,0.7-0.7,1-1.3,0.8c-0.6-0.2-0.6-1-0.1-2.5c0.9-2.4,0.9-4.6,0.1-6.6
		c-0.8-2-2.4-3.5-4.6-4.6c-2.2-1.1-8.9-3.6-20-7.7C240.5,435.4,231,432.4,221.5,429.6z"/>
	<path d="M241.5,376.4l4.7-7.5l6.8-11.8c0.8-1.4,1.5-1.9,2.1-1.6c0.4,0.2,0.5,0.8,0.1,1.6c-1.5,3.3-1.5,5.9-0.1,7.8
		c1.4,1.9,8,6.3,19.8,13.4c4.3,2.6,9.3,5.4,14.8,8.4c5.6,3,9,4.7,10.2,5c1.2,0.4,2.4,0.3,3.6,0c1.1-0.4,2.5-1.6,4-3.5
		c0.5-0.6,1-0.8,1.4-0.6c0.5,0.3,0.6,0.8,0.2,1.4l-6.3,10.4l-5.2,8.9c-0.6,1-1.2,1.3-1.7,1c-0.6-0.4-0.6-0.9-0.2-1.7
		c1.5-2.6,1.5-4.7,0.1-6.1c-1.4-1.4-6.6-4.9-15.7-10.2c-8.7-5.2-15.8-9.3-21.3-12.4c-5.5-3.1-9.1-4.6-10.7-4.5c-1.7,0-3.3,1-4.8,2.9
		c-0.6,0.7-1.2,0.9-1.7,0.6C241.3,377.4,241.2,376.9,241.5,376.4z"/>
	<path d="M288.2,359.6c-3.3-2.9-6-7.1-8.2-12.6c-2.2-5.5-2.8-11.3-2-17.4c0.8-6.1,3.4-11.6,7.7-16.4c6-6.7,13.3-10.2,22.1-10.3
		c8.7-0.1,16.2,2.6,22.4,8.1c6.6,5.8,10.3,13.5,11.2,23c0.9,9.5-1.7,17.7-7.8,24.5c-5.8,6.5-13,10-21.5,10.4
		C303.6,369.3,295.6,366.2,288.2,359.6z M294.2,350.4c4,3.5,8.6,6.5,13.8,9c5.3,2.5,10,3.3,14.2,2.3c4.2-0.9,7.6-2.9,10.2-5.8
		c4.3-4.8,5.3-10.7,3.2-17.7c-2.1-7-6.2-13.3-12.4-18.7c-5.9-5.3-12.5-8.4-19.6-9.5c-7.1-1-12.8,0.8-17,5.5
		c-3.2,3.6-4.6,7.6-4.3,12.1c0.3,4.5,1.6,8.8,4,12.9S291.4,347.9,294.2,350.4z"/>
	<path d="M334.3,269.4c3.1,1.1,8.2,2.6,15.3,4.5l23.1,6.3l22.2,6c-3-5.1-7.2-11.5-12.4-19.3c-3.9-5.9-6.7-9.7-8.3-11.5
		s-3.6-2.9-6.1-3.2c-2.5-0.3-4.9,0.3-7.2,1.9c-1.1,0.7-1.8,0.9-2.1,0.4c-0.2-0.3-0.2-0.5-0.1-0.8c0.1-0.3,1.9-1.6,5.2-4
		c3.3-2.4,6.1-4.4,8.5-6l5.5-3.6l0.9-0.6c0.8-0.6,1.4-0.6,1.7-0.1c0.3,0.4,0.1,0.9-0.6,1.5c-2.5,2.1-4,4.2-4.5,6.1
		c-0.4,1.9-0.1,4,1.1,6.3c1.2,2.3,5.9,9.4,14,21.5l14,21.7c0.7,1.1,0.8,1.8,0.3,2.2c-0.1,0.1-0.4,0.2-0.7,0.2
		c-0.3,0-2.4-0.5-6.4-1.6c-3.9-1.1-8.7-2.4-14.4-3.9s-10.2-2.7-13.5-3.8c-7.3-2.2-11.9-3.5-13.7-3.9c-6.7-1.5-10.8-2.6-12.3-3.4
		c-1-0.5-1.7-0.6-2.1-0.4c-0.3,0.2-0.1,0.8,0.6,1.9l4.3,6.2c5.4,8,9.9,14.2,13.5,18.6c3.6,4.5,6,6.9,7,7.4c1,0.5,2.4,0.8,4.1,0.8
		c1.7,0,3.3-0.4,4.6-1.3c1.8-1.2,2.9-1.5,3.3-0.8c0.3,0.5,0,1.1-1,1.7l-19.5,13.1c-0.9,0.6-1.5,0.7-1.8,0.2
		c-0.4-0.5-0.1-1.1,0.8-1.7c3.3-2.2,5-4.5,5.2-6.7c0.1-2.2-1.4-5.7-4.7-10.5l-9.9-14c-5.7-8.4-9.2-13.2-10.7-14.4
		c-1.5-1.2-3.7-2.3-6.8-3.4c-3.1-1.1-5.7-1-7.9,0.1c-1,0.5-1.6,0.6-1.9,0.2c-0.3-0.5,0.1-1.2,1.3-2L334.3,269.4z"/>
</g>
</svg>
