<?xml version="1.0" encoding="utf-8"?>
<!-- Generator: Adobe Illustrator 28.1.0, SVG Export Plug-In . SVG Version: 6.00 Build 0)  -->
<svg version="1.1" id="Layer_1" xmlns="http://www.w3.org/2000/svg" xmlns:xlink="http://www.w3.org/1999/xlink" x="0px" y="0px"
	 viewBox="0 0 2158 1080" style="enable-background:new 0 0 2158 1080;" xml:space="preserve">
<style type="text/css">
	.st0{fill:#FF7300;}
	.st1{fill:#FFFFFF;}
</style>
<g>
	<path class="st0" d="M279.1,675.2l3.3,1.6l-1.6,3.3l18.3,25.2l-3.3,4.9c1.2,6.1,1.6,10.6,1.6,13.4l-1.6,3.3l1.6,3.3
		c-0.8,9-2,13.4-3.3,13.4l1.6,3.3l-4.9,8.1v3.3c7.7,12.2,11.4,20.4,11.4,25.2h1.6c0.8-11,6.1-23.6,15.1-38.7
		c12.2-27.7,21.2-41.9,26.9-41.9h3.3c2.8,8.5,6.1,14.2,10.2,16.7l8.1-1.6c3.3,10.6,4.9,16.7,4.9,18.3c0,6.1-23.6,55-70,147l-4.9,3.3
		c-2.4,0-3.3-1.2-3.3-3.3c2.4,0,3.3-1.2,3.3-3.3v-5.3c0-4.1-2-8.5-6.5-13.4c1.2-2,1.6-4.1,1.6-5.3c-18.7-28.5-28.1-45.2-28.1-50.1
		c-13.4-22-19.9-43.2-19.9-63.5l31.8-65.1C276.2,676.4,277,675.2,279.1,675.2z"/>
	<path class="st0" d="M520.1,750.9c1.6,0,7.3,4.5,16.7,13.4h8.1c0,2.8,1.6,7.3,5.3,13.8c-2.8,10.2-18.3,39.5-45.6,87.9
		c0,1.2-3.3,8.5-10.2,22h-5.3v-5.3c0-2.4-4.5-12.6-13.4-30.5c3.3-8.1,8.5-27.7,15.1-59.4C504.2,769.6,514,755.8,520.1,750.9z
		 M560.4,658.1c0,4.9,5.7,14.2,16.7,27.3l-1.6,8.1v1.6c0,3.3,0.4,5.3,1.6,5.3c0,28.5-7.7,47.6-23.6,57.4
		c-5.3-4.9-14.2-11.8-27.3-20.4c0-5.7-1.2-8.5-3.3-8.5l33.8-71.2L560.4,658.1L560.4,658.1L560.4,658.1z"/>
	<path class="st0" d="M838.8,667.8l1.6,2.8c-1.2,0-4.1,2.4-7.7,7.7c2,0.4,2.8,1.2,2.8,2.8c-0.8,0-3.7,3.3-9,9.4l1.6,2.8v1.6
		l-9.4,10.6l4.5,3.3c5.3-3.3,10.6-4.9,15.5-4.9v1.6c0,2.8-6.5,9.8-19.9,21.6l1.6,2.8c-20.4,21.2-33,34.6-38.3,41.1
		c2.8,0,4.5,0.4,4.5,1.6c11.4-2.8,22.4-4.5,33.8-4.5h12.2c11.4,0,18.3,8.1,21.6,24.4c-6.5,17.1-29.3,38.7-68.8,64.3
		c-17.5,11.4-62.3,52.1-134.3,122.1c-24.4,18.3-40.3,28.5-47.2,30.5l-1.6-2.8c31.3-20.4,47.2-37.9,47.2-52.1
		c11.8-9.8,19.1-19.9,21.6-30.5c3.3-1.6,6.9-7.7,10.6-18.3c11-8.1,35.4-31.8,73.3-70l26.1-18.3v-2.8l-3.3,1.6h-9
		c-18.7,4.1-38.7,7.7-59.8,10.6c-12.6,0-20.8-7.7-24.4-22.8c0-2.8-0.8-5.7-2.8-9.4c2.4-9,17.5-21.2,44.4-36.6
		C790,701.2,827.8,671.1,838.8,667.8z"/>
	<path class="st0" d="M1118.1,687c2,0.4,3.3,1.2,3.3,3.3c-2,0.4-3.3,1.2-3.3,2.8v4.9c0,4.1,2,8.1,6.1,12.6c-0.8,2-1.6,3.7-1.6,4.9
		l6.1,14.2c-4.5,4.9-9.4,20.4-14.2,46.8c-5.3,19.1-9.8,32.2-14.2,39.1c1.2,0,4.1,2.8,7.7,7.7c-1.2,0-3.7,4.1-7.7,12.6v2.8l3.3,4.9
		v3.3l-12.6,11c-1.2,0-2.4,0.4-4.5,1.6c-19.5-0.8-35.4-1.6-48.4-1.6h-4.9c-4.5,0-10.2,0.4-17.5,1.6c-2-0.8-4.1-1.6-6.1-1.6
		c-2.8,6.9-7.3,11.8-12.6,14.2h-2.8c-2.4-9.4-7.3-14.2-14.2-14.2c-4.1,0-6.5-1.6-6.5-4.9l1.6-3.3c-2-3.3-3.3-6.5-3.3-9.4
		c0-5.7,22-51.7,65.9-138l4.5-2.8c2,0.4,3.3,1.2,3.3,2.8c-2,0.4-3.3,1.6-3.3,3.3v4.9c0,3.7,2,7.7,6.5,12.2c-1.2,2-1.6,3.7-1.6,4.9
		l6.5,14.2c-5.3,5.7-11,26.5-17.5,61.1c-2.4,2.4-4.5,8.1-6.1,17.1c17.5-2.8,26.5-9,26.5-18.7c1.6-1.2,20.4-38.3,56.6-111.1
		L1118.1,687z"/>
	<path class="st0" d="M1324.9,883.2c-34.6-4.1-59.8-26.9-75.3-69.6c-1.2-7.3-1.6-13-1.6-17.5c15.5-68.4,49.7-102.2,102.2-102.2
		c26.1,0,43.2,9.4,51.3,28.5c2.4-5.3,3.7-10.6,4.1-15.5c9.4-16.7,17.5-26.5,23.6-28.9c0,1.2,0.4,1.6,1.6,1.6l-1.6,3.3
		c2.4,3.3,4.9,9.4,6.9,18.7h1.6c3.7-2.4,6.9-3.3,10.2-3.3v6.9l-1.6,8.5l3.3,1.6c0.4,9-10.6,27.7-33,56.2
		c-52.5,99.3-79.4,149.8-81.4,151.4h-1.6c0-6.5-1.6-11.8-5.3-15.1v-5.3l3.3-5.3c-2-3.3-7.7-2-17.1,3.3
		C1317.6,897,1320.8,891.3,1324.9,883.2z M1399,728.1c-2.8-1.6-6.9-4.1-11.8-6.9l-3.3,1.6h-3.3l-6.1-4.9h-1.6v6.5l3.3,4.9v1.6
		l-1.6,3.3l-11.4-1.6h-1.6l-36.6,13c-17.5,15.9-28.1,33.8-31.8,54.1c0,16.3,10.6,30.1,31.8,41.5c5.3,2.8,11,4.1,17.9,4.9
		c10.6-23.6,23.6-54.5,39.1-92.4C1388.8,744.4,1394.9,735.8,1399,728.1z"/>
	<path class="st0" d="M1668.1,573.4c0,1.2,0.4,1.6,1.6,1.6l-1.6,3.3c2.4,3.3,4.9,9.4,6.9,18.7h1.6c3.7-2.4,6.9-3.3,10.2-3.3v6.9
		l-1.6,8.5l3.3,1.6c-4.9,22.8-17.1,52.9-37,90c-4.9,23.6-18.3,49.3-40.7,78.2c-60.2,116.4-91.6,175.5-93.2,176.7h-1.6
		c0-6.5-1.6-11.8-5.3-15.1v-5.3l3.3-5.3c-2-3.3-3.7-10.6-5.3-22c9.8-15.5,31.8-64.7,66.4-147.8c14.7-17.5,27.7-50.1,39.1-96.9
		c5.3-4.1,15.5-24.4,30.5-61.1C1653.8,585.6,1661.9,575.8,1668.1,573.4z"/>
	<path class="st0" d="M1898.5,667.8l1.6,2.8c-1.2,0-4.1,2.4-7.7,7.7c2,0.4,2.8,1.2,2.8,2.8c-0.8,0-3.7,3.3-9,9.4l1.6,2.8v1.6
		l-9.4,10.6l4.5,3.3c5.3-3.3,10.6-4.9,15.5-4.9v1.6c0,2.8-6.5,9.8-19.9,21.6l1.6,2.8c-20.4,21.2-33,34.6-37.9,41.1
		c2.8,0,4.5,0.4,4.5,1.6c11.4-2.8,22.4-4.5,33.8-4.5h12.2c11.4,0,18.3,8.1,21.6,24.4c-6.5,17.1-29.3,38.7-68.8,64.3
		c-17.5,11.4-62.3,52.1-134.3,122.1c-24.4,18.3-40.3,28.5-47.2,30.5l-1.6-2.8c31.3-20.4,47.2-37.9,47.2-52.1
		c11.8-9.8,19.1-19.9,21.6-30.5c3.3-1.6,6.9-7.7,10.6-18.3c11-8.1,35.4-31.8,73.3-70l26.1-18.3v-2.8l-3.3,1.6h-9
		c-18.7,4.1-38.7,7.7-59.8,10.6c-12.6,0-20.8-7.7-24.4-22.8c0-2.8-1.2-5.7-2.8-9.4c2.4-9,17.5-21.2,44.4-36.6
		C1849.6,701.2,1887.5,671.1,1898.5,667.8z"/>
</g>
<g>
	<path class="st1" d="M187.1,243.2l138-172.6h172.6L299.4,312.4l198.3,241.8H325.1l-138-172.6v172.2h-138V70.6h138V243.2
		L187.1,243.2z"/>
	<path class="st1" d="M1085.5,70.6v483.2h-138v-230l-138,230l-138-229.2v229.2h-138V70.6h138l138,241.8l138-241.8
		C947.5,70.6,1085.5,70.6,1085.5,70.6z"/>
	<path class="st1" d="M1265.9,70.6v483.2h-138V70.6H1265.9z"/>
	<path class="st1" d="M1472.2,312.4L1307.8,70.6h156.3l84.3,125.8l85.9-125.8H1791l-162,242.6l162,240.6h-153.5l-90-125l-81.8,125
		h-157.5L1472.2,312.4z"/>
	<path class="st1" d="M2108.9,70.6l-34.6,138h-103.4c-28.5,0-52.9,10.2-73.3,30.5s-30.5,44.8-30.5,73.3s10.2,52.9,30.5,73.3
		c20.4,20.4,44.8,30.5,73.3,30.5h138v137.6h-138c-66.8,0-123.8-23.6-171-70.8s-70.8-104.2-70.8-171s23.6-123.8,70.8-171
		s104.2-70.8,171-70.8h138V70.6z"/>
</g>
</svg>
